<svg xmlns="http://www.w3.org/2000/svg" width="21.31" height="21.31" viewBox="0 0 21.31 21.31">
  <path id="linkedin_square" data-name="linkedin square" d="M3.288,17.842h3.2V8.213h-3.2ZM6.7,5.244a1.64,1.64,0,0,0-.5-1.193,1.773,1.773,0,0,0-1.29-.472A1.847,1.847,0,0,0,3.6,4.051a1.56,1.56,0,0,0-.506,1.193A1.588,1.588,0,0,0,3.586,6.43a1.764,1.764,0,0,0,1.283.479h.014A1.825,1.825,0,0,0,6.2,6.43,1.577,1.577,0,0,0,6.7,5.244Zm8.116,12.6h3.2V12.32a4.607,4.607,0,0,0-1.013-3.233,3.473,3.473,0,0,0-2.678-1.1,3.226,3.226,0,0,0-2.9,1.623h.028v-1.4h-3.2q.042.916,0,9.628h3.2V12.459a2.3,2.3,0,0,1,.1-.777,2.142,2.142,0,0,1,.624-.825,1.57,1.57,0,0,1,1.027-.34q1.609,0,1.609,2.178ZM21.31,4V17.314a4,4,0,0,1-4,4H4a3.848,3.848,0,0,1-2.823-1.172A3.848,3.848,0,0,1,0,17.314V4A3.848,3.848,0,0,1,1.172,1.172,3.848,3.848,0,0,1,4,0H17.314a3.848,3.848,0,0,1,2.823,1.172A3.848,3.848,0,0,1,21.31,4Zm0,15.539" fill="#233447"/>
</svg>
