<svg id="magellan_icon" xmlns="http://www.w3.org/2000/svg" width="842.55" height="842.55" viewBox="0 0 842.55 842.55">
  <path id="Path_14" data-name="Path 14" d="M396.469,308.745a198.155,198.155,0,0,0-109.785-89.388,36.155,36.155,0,0,0-11.379-1.876c-25.8,0-44.841,29.111-30.524,53.917L352.968,458.782a35.228,35.228,0,0,0,30.966,17.942c15.72,0,31.276-9.98,35.055-28.212A198.163,198.163,0,0,0,396.469,308.745Z" transform="translate(37.278 -217.481)" fill="#fafafa"/>
  <path id="Path_15" data-name="Path 15" d="M363.838,217.481a36.177,36.177,0,0,0-11.379,1.876,198.31,198.31,0,0,0-82.313,52.7,216.933,216.933,0,0,1,46.943,133.172L394.363,271.4C408.684,246.592,389.643,217.481,363.838,217.481Z" transform="translate(166.128 -217.481)" fill="#fafafa"/>
  <path id="Path_16" data-name="Path 16" d="M286.521,496.448a198.152,198.152,0,0,0,109.785,89.388,36.149,36.149,0,0,0,11.378,1.876c25.8,0,44.846-29.11,30.524-53.917L330.022,346.411a35.23,35.23,0,0,0-30.967-17.943c-15.719,0-31.271,9.98-35.054,28.212A198.19,198.19,0,0,0,286.521,496.448Z" transform="translate(122.281 254.837)" fill="#fafafa"/>
  <path id="Path_17" data-name="Path 17" d="M275.305,529.823a36.149,36.149,0,0,0,11.379-1.876A198.244,198.244,0,0,0,369,475.243a216.944,216.944,0,0,1-46.943-133.172L244.781,475.905C230.464,500.712,249.5,529.823,275.305,529.823Z" transform="translate(37.278 312.727)" fill="#fafafa"/>
  <path id="Path_18" data-name="Path 18" d="M425.226,384.7a198.184,198.184,0,0,0-14.421-140.835,36.312,36.312,0,0,0-6.722-9.371c-18.248-18.248-52.294-11.126-59.71,16.54l-56,209a35.214,35.214,0,0,0,9.208,34.587c11.11,11.116,29.168,15.052,44.736,4.835A198.19,198.19,0,0,0,425.226,384.7Z" transform="translate(238.222 -187.964)" fill="#fafafa"/>
  <path id="Path_19" data-name="Path 19" d="M472.86,278.06a36.283,36.283,0,0,0-9.371-6.722A198.384,198.384,0,0,0,368.021,250.4a222.681,222.681,0,0,1-5.646,30.073,221.457,221.457,0,0,1-55.331,97.292l149.275-40C483.986,330.354,491.107,296.308,472.86,278.06Z" transform="translate(323.156 -77.816)" fill="#fafafa"/>
  <path id="Path_20" data-name="Path 20" d="M226.744,438.07a198.122,198.122,0,0,0,14.422,140.835,36.14,36.14,0,0,0,6.716,9.371c18.248,18.247,52.293,11.126,59.709-16.54l56-209a35.225,35.225,0,0,0-9.2-34.588c-11.115-11.116-29.174-15.052-44.736-4.835A198.149,198.149,0,0,0,226.744,438.07Z" transform="translate(-47.637 207.739)" fill="#fafafa"/>
  <path id="Path_21" data-name="Path 21" d="M204.152,420.427a36.278,36.278,0,0,0,9.371,6.722A198.382,198.382,0,0,0,309,448.088a216.9,216.9,0,0,1,60.975-127.365l-149.281,40C193.025,368.134,185.9,402.18,204.152,420.427Z" transform="translate(-157.619 221.877)" fill="#fafafa"/>
  <path id="Path_22" data-name="Path 22" d="M466.1,426.814A198.154,198.154,0,0,0,555.49,317.03a36.179,36.179,0,0,0,1.876-11.378c0-25.8-29.111-44.841-53.912-30.524L316.065,383.313a35.226,35.226,0,0,0-17.943,30.966c0,15.719,9.98,31.271,28.212,35.055A198.159,198.159,0,0,0,466.1,426.814Z" transform="translate(285.183 6.932)" fill="#fafafa"/>
  <path id="Path_23" data-name="Path 23" d="M499.477,394.184a36.161,36.161,0,0,0-1.876-11.379,198.3,198.3,0,0,0-52.7-82.313,217.006,217.006,0,0,1-133.178,46.943l133.84,77.273C470.366,439.025,499.477,419.989,499.477,394.184Z" transform="translate(343.072 135.782)" fill="#fafafa"/>
  <path id="Path_24" data-name="Path 24" d="M278.4,316.869a198.149,198.149,0,0,0-89.387,109.785,36.16,36.16,0,0,0-1.876,11.378c0,25.806,29.111,44.841,53.917,30.525L428.436,360.369A35.232,35.232,0,0,0,446.384,329.4c0-15.719-9.986-31.271-28.218-35.054A198.162,198.162,0,0,0,278.4,316.869Z" transform="translate(-187.135 91.934)" fill="#fafafa"/>
  <path id="Path_25" data-name="Path 25" d="M187.135,305.651a36.313,36.313,0,0,0,1.876,11.378,198.308,198.308,0,0,0,52.7,82.314A216.934,216.934,0,0,1,374.892,352.4l-133.84-77.273C216.246,260.81,187.135,279.846,187.135,305.651Z" transform="translate(-187.135 6.932)" fill="#fafafa"/>
  <path id="Path_26" data-name="Path 26" d="M407.725,455.568A198.156,198.156,0,0,0,548.56,441.151a36.29,36.29,0,0,0,9.37-6.722c18.248-18.248,11.126-52.293-16.54-59.709l-209-56a35.226,35.226,0,0,0-34.587,9.2c-11.116,11.115-15.052,29.174-4.835,44.741A198.165,198.165,0,0,0,407.725,455.568Z" transform="translate(238.085 207.875)" fill="#fafafa"/>
  <path id="Path_27" data-name="Path 27" d="M390.082,503.207a36.331,36.331,0,0,0,6.722-9.371,198.4,198.4,0,0,0,20.938-95.474,216.774,216.774,0,0,1-127.365-60.97l40,149.276C337.788,514.333,371.834,521.454,390.082,503.207Z" transform="translate(252.223 292.81)" fill="#fafafa"/>
  <path id="Path_28" data-name="Path 28" d="M354.357,257.089a198.153,198.153,0,0,0-140.834,14.416,36.272,36.272,0,0,0-9.371,6.722c-18.248,18.247-11.126,52.293,16.539,59.709l209,56a35.223,35.223,0,0,0,34.587-9.2c11.115-11.115,15.052-29.174,4.835-44.741A198.164,198.164,0,0,0,354.357,257.089Z" transform="translate(-157.619 -77.983)" fill="#fafafa"/>
  <path id="Path_29" data-name="Path 29" d="M247.714,234.5A36.16,36.16,0,0,0,241,243.868a198.335,198.335,0,0,0-20.944,95.474,216.81,216.81,0,0,1,127.37,60.97l-40-149.275C300.007,223.372,265.961,216.25,247.714,234.5Z" transform="translate(-47.47 -187.964)" fill="#fafafa"/>
</svg>
