<?xml version="1.0" standalone="no"?>
<!DOCTYPE svg PUBLIC "-//W3C//DTD SVG 1.1//EN" "http://www.w3.org/Graphics/SVG/1.1/DTD/svg11.dtd" >
<svg xmlns="http://www.w3.org/2000/svg" xmlns:xlink="http://www.w3.org/1999/xlink" version="1.1">
<metadata></metadata>
<defs>
<font id="arial_novabold" horiz-adv-x="682" >
<font-face units-per-em="2048" ascent="1638" descent="-410" />
<missing-glyph horiz-adv-x="512" />
<glyph horiz-adv-x="0" />
<glyph />
<glyph horiz-adv-x="0" />
<glyph horiz-adv-x="0" />
<glyph unicode=" "  horiz-adv-x="512" />
<glyph unicode="&#x09;" horiz-adv-x="512" />
<glyph unicode="&#xa0;" horiz-adv-x="512" />
<glyph unicode="!" d="M188 1121v345h306v-345l-72 -742h-162zM197 0v288h288v-288h-288z" />
<glyph unicode="&#x22;" horiz-adv-x="971" d="M90 1219v247h307v-247l-48 -275h-206zM574 1219v247h307v-247l-48 -275h-206z" />
<glyph unicode="#" horiz-adv-x="1139" d="M22 362v224h181l59 294h-240v224h285l78 387h225l-78 -387h224l78 387h225l-78 -387h136v-224h-181l-59 -294h240v-224h-285l-78 -387h-225l78 387h-224l-78 -387h-225l78 387h-136zM428 586h224l59 294h-224z" />
<glyph unicode="$" horiz-adv-x="1163" d="M70 412l261 28q17 -82 53.5 -142t115.5 -81v411q-203 68 -296.5 178t-93.5 266q0 103 43.5 189.5t131 143t215.5 68.5v127h146v-128q171 -17 264.5 -108t121.5 -240l-254 -33q-9 55 -39 94t-93 55v-377q163 -54 256.5 -117.5t133 -146t39.5 -199.5q0 -97 -46 -186.5 t-142.5 -153t-240.5 -78.5v-187h-146v185q-186 16 -293 128t-137 304zM362 1086q0 -54 32 -100t106 -76v334q-73 -15 -105.5 -59t-32.5 -99zM646 215q92 17 134.5 66t42.5 114t-39 108.5t-138 79.5v-368z" />
<glyph unicode="%" horiz-adv-x="1782" d="M68 1080q0 197 88.5 304t256.5 107q171 0 257.5 -103.5t86.5 -301.5q0 -200 -86.5 -302t-253.5 -102q-172 0 -260.5 101.5t-88.5 296.5zM304 1087q0 -115 24.5 -168.5t84.5 -53.5t84 52.5t24 169.5q0 113 -24 167.5t-85 54.5q-60 0 -84 -56t-24 -166zM402 -25l792 1516 h191l-784 -1516h-199zM1025 373q0 197 88.5 304t256.5 107q171 0 257.5 -103.5t86.5 -301.5q0 -200 -86.5 -302t-253.5 -102q-172 0 -260.5 101.5t-88.5 296.5zM1261 380q0 -115 24.5 -168.5t84.5 -53.5t84 52.5t24 169.5q0 113 -24 167.5t-85 54.5q-60 0 -84 -56t-24 -166z " />
<glyph unicode="&#x26;" horiz-adv-x="1468" d="M80 402q0 137 81.5 250.5t248.5 196.5q-70 80 -108 162.5t-38 162.5q0 91 52 163.5t145 113t213 40.5q113 0 205 -36t146.5 -111t54.5 -187q0 -68 -28 -124.5t-87.5 -111t-159.5 -117.5l211 -267q39 70 61 168l254 -58q-21 -84 -54.5 -169.5t-72.5 -131.5 q38 -37 114.5 -91t117.5 -75l-170 -219q-118 58 -240 170q-88 -83 -190.5 -120.5t-235.5 -37.5q-162 0 -280 57.5t-179 155.5t-61 216zM368 412q0 -58 26.5 -104.5t76.5 -73.5t117 -27q69 0 130 25.5t130 84.5l-293 352q-91 -48 -139 -113.5t-48 -143.5zM539 1182 q0 -24 14.5 -55t40.5 -65l66 -84q85 47 128.5 92.5t43.5 92.5q0 35 -18.5 64.5t-53 47t-81.5 17.5q-60 0 -100 -31.5t-40 -78.5z" />
<glyph unicode="'" horiz-adv-x="487" d="M90 1219v247h307v-247l-48 -275h-206z" />
<glyph unicode="(" d="M106 533q0 506 314 958h192q-91 -199 -142 -353.5t-72.5 -298.5t-21.5 -314q0 -468 236 -955h-192q-154 233 -234 479t-80 484z" />
<glyph unicode=")" d="M70 -430q91 198 141.5 352.5t72.5 299.5t22 315q0 229 -57.5 465t-178.5 489h192q152 -229 233 -478t81 -486q0 -247 -78.5 -488.5t-235.5 -468.5h-192z" />
<glyph unicode="*" horiz-adv-x="797" d="M34 1165l57 176q65 -27 137 -62t102 -54q-25 149 -25 266h178q0 -46 -5 -103t-21 -165q109 51 251 110l55 -182q-182 -37 -259 -49q109 -114 176 -201l-152 -102q-77 112 -135 223q-64 -114 -139 -229l-152 116q41 49 82.5 90.5t105.5 102.5q-25 2 -125.5 26t-130.5 37z " />
<glyph unicode="+" horiz-adv-x="1196" d="M86 594v258h383v383h258v-383h383v-258h-383v-383h-258v383h-383z" />
<glyph unicode="," horiz-adv-x="568" d="M118 -206q85 27 121.5 76t39.5 130h-139v288h288v-219q0 -112 -21.5 -184t-76 -123t-155.5 -90z" />
<glyph unicode="-" horiz-adv-x="741" d="M95 391v281h551v-281h-551z" />
<glyph unicode="." horiz-adv-x="568" d="M140 0v288h288v-288h-288z" />
<glyph unicode="/" horiz-adv-x="569" d="M-2 -49l358 1515h211l-362 -1515h-207z" />
<glyph unicode="0" horiz-adv-x="1163" d="M85 725q0 383 126 565.5t369 182.5q252 0 375 -184.5t123 -564.5q0 -392 -128.5 -570.5t-367.5 -178.5q-243 0 -370 177.5t-127 572.5zM380 703q0 -184 21 -292t64.5 -155t114.5 -47q75 0 119 49.5t64 161t20 303.5q0 200 -20 311.5t-62.5 158t-114.5 46.5 q-73 0 -117 -42.5t-66.5 -158.5t-22.5 -335z" />
<glyph unicode="1" horiz-adv-x="1163" d="M156 846v254q159 61 273 149t166 224h229v-1473h-286v1059q-75 -72 -176.5 -128t-205.5 -85z" />
<glyph unicode="2" horiz-adv-x="1163" d="M63 0q18 174 121 316q64 89 143.5 172t198.5 197q67 65 128 125q99 100 99 234q0 93 -46.5 144t-130.5 51q-95 0 -142.5 -56.5t-56.5 -170.5v-2l-290 28q19 221 151.5 328t345.5 107q142 0 247.5 -54.5t161 -148t55.5 -208.5q0 -95 -32.5 -181.5t-105.5 -179.5t-196 -203 q-184 -165 -225 -236h559v-262h-985z" />
<glyph unicode="3" horiz-adv-x="1163" d="M75 389l282 33q13 -105 67 -159t142 -54q62 0 108.5 32t71.5 87t25 121q0 63 -27 112.5t-77 77.5t-117 28h-133l31 215q147 0 214.5 48.5t67.5 141.5q0 73 -46 116.5t-124 43.5q-80 0 -132 -52.5t-63 -142.5l-270 46q40 192 161 287.5t311 95.5q135 0 237 -48.5t157 -134 t55 -194.5q0 -101 -57 -182.5t-176 -127.5q134 -27 208.5 -119.5t74.5 -223.5q0 -144 -60.5 -248t-172.5 -158.5t-265 -54.5q-131 0 -236 47t-172 140t-85 227z" />
<glyph unicode="4" horiz-adv-x="1163" d="M40 295v246l647 929h236v-927h182v-248h-182v-295h-281v295h-602zM304 543h338v489z" />
<glyph unicode="5" horiz-adv-x="1163" d="M80 381l288 28q12 -93 67.5 -146.5t139.5 -53.5q61 0 107 34t71.5 99t25.5 153q0 129 -54.5 195.5t-157.5 66.5q-133 0 -217 -107l-1 -1l-233 33l143 764h750v-262h-531l-43 -250q84 47 194 47q138 0 239 -63.5t153.5 -174t52.5 -250.5q0 -139 -58 -257.5t-171.5 -189.5 t-272.5 -71q-131 0 -236 48.5t-171.5 140t-84.5 217.5z" />
<glyph unicode="6" horiz-adv-x="1163" d="M98 713q0 246 61.5 415.5t181 257t291.5 87.5q112 0 201.5 -45t146.5 -127.5t72 -192.5l-278 -29q-15 79 -53.5 119.5t-106.5 40.5q-208 0 -221 -410q95 121 268 121q120 0 216 -62t150 -171t54 -246q0 -141 -60 -253.5t-170 -177.5t-256 -65q-241 0 -369 185t-128 553z M403 497q0 -138 53.5 -213t144.5 -75q86 0 139 68t53 194q0 264 -197 264q-86 0 -139.5 -59.5t-53.5 -178.5z" />
<glyph unicode="7" horiz-adv-x="1163" d="M98 1184v262h973v-203q-205 -208 -348 -560q-138 -340 -141 -683h-287q7 310 124 618.5t320 565.5h-641z" />
<glyph unicode="8" horiz-adv-x="1163" d="M90 408q0 138 63 235t183 148q-101 43 -153.5 120.5t-52.5 182.5q0 109 53.5 195.5t154.5 135t239 48.5q134 0 235.5 -48t156.5 -134t55 -197q0 -102 -52 -180.5t-149 -122.5q122 -49 186 -144t64 -229q0 -128 -61.5 -229t-172 -157.5t-250.5 -56.5q-141 0 -255 54 t-179 152.5t-65 226.5zM378 424q0 -66 26 -116.5t73 -78.5t106 -28q99 0 150.5 60.5t51.5 160.5q0 70 -24.5 126.5t-71 89t-111.5 32.5q-93 0 -146.5 -65.5t-53.5 -180.5zM400 1072q0 -84 49 -130.5t128 -46.5q49 0 89 20.5t64 61.5t24 98q0 79 -48.5 125.5t-128.5 46.5 t-128.5 -48.5t-48.5 -126.5z" />
<glyph unicode="9" horiz-adv-x="1163" d="M92 977q0 141 60 253.5t170 177.5t256 65q241 0 369 -185t128 -553q0 -246 -61.5 -415.5t-181 -257t-291.5 -87.5q-112 0 -201.5 45t-146.5 127.5t-72 192.5l278 29q15 -79 53.5 -119.5t106.5 -40.5q208 0 221 410q-95 -121 -268 -121q-120 0 -216 62t-150 171t-54 246z M380 977q0 -264 197 -264q86 0 139.5 59.5t53.5 178.5q0 93 -25.5 158t-69 97.5t-98.5 32.5q-90 0 -143.5 -68t-53.5 -194z" />
<glyph unicode=":" horiz-adv-x="606" d="M155 0v288h288v-288h-288zM155 773v288h288v-288h-288z" />
<glyph unicode=";" horiz-adv-x="606" d="M133 -206q85 27 121.5 76t39.5 130h-139v288h288v-219q0 -112 -21.5 -184t-76 -123t-155.5 -90zM155 773v288h288v-288h-288z" />
<glyph unicode="&#x3c;" horiz-adv-x="1196" d="M96 602v244l1004 436v-287l-701 -268l701 -278v-283z" />
<glyph unicode="=" horiz-adv-x="1196" d="M86 373v258h1024v-258h-1024zM86 817v258h1024v-258h-1024z" />
<glyph unicode="&#x3e;" horiz-adv-x="1196" d="M96 166v285l701 270l-701 276v285l1004 -438v-244z" />
<glyph unicode="?" horiz-adv-x="1115" d="M72 1052q11 132 73.5 230t166 151t235.5 53q135 0 243.5 -52t170.5 -148.5t62 -224.5q0 -71 -20.5 -126t-71.5 -114t-149 -141q-61 -51 -88 -88t-35 -76t-8 -110v-27h-256v30q0 131 14 183q17 64 61.5 131t115.5 123q83 65 119.5 117.5t36.5 103.5q0 59 -25.5 102t-69 65 t-94.5 22q-90 0 -145.5 -59.5t-73.5 -176.5zM379 0v288h288v-288h-288z" />
<glyph unicode="@" horiz-adv-x="1997" d="M60 484q0 289 127.5 518.5t357.5 359t528 129.5q239 0 436 -93.5t312.5 -268t115.5 -407.5q0 -189 -82.5 -355.5t-221.5 -266.5t-300 -100q-97 0 -148 42.5t-56 118.5q-52 -78 -131.5 -119.5t-158.5 -41.5q-106 0 -188 54.5t-127.5 150.5t-45.5 215q0 187 69 338.5 t186.5 238t257.5 86.5q84 0 149.5 -35.5t102.5 -99.5l25 111h250l-145 -694q-19 -90 -19 -108q0 -26 16.5 -39.5t35.5 -13.5q72 0 154.5 65.5t138.5 181.5t56 259q0 190 -86 327.5t-241 209.5t-359 72q-271 0 -457 -109.5t-278 -298t-92 -424.5q0 -216 89 -384.5t267 -264.5 t435 -96q203 0 364.5 49t265.5 126l109 -145q-133 -99 -315 -150.5t-442 -51.5q-278 0 -494.5 107.5t-338.5 314t-122 492.5zM736 437q0 -108 42.5 -170.5t121.5 -62.5q84 0 149.5 67t102.5 184q36 117 36 206q0 111 -43 164.5t-130 53.5q-91 0 -154 -71.5t-94 -175 t-31 -195.5z" />
<glyph unicode="A" horiz-adv-x="1460" d="M4 0l571 1466h293l588 -1466h-323l-127 332h-566l-121 -332h-315zM530 580h381l-123 331q-24 64 -42.5 131t-24.5 109h-8q-18 -120 -62 -240z" />
<glyph unicode="B" horiz-adv-x="1410" d="M154 0v1466h648q200 0 323.5 -90.5t123.5 -292.5q0 -110 -56 -185.5t-151 -117.5q135 -39 206.5 -132.5t71.5 -221.5q0 -221 -149.5 -323.5t-370.5 -102.5h-646zM449 248h300q71 0 128.5 12.5t97 54t39.5 120.5q0 96 -61.5 148t-210.5 52h-293v-387zM449 883h297 q106 0 160.5 42t54.5 125q0 99 -61.5 133.5t-157.5 34.5h-293v-335z" />
<glyph unicode="C" horiz-adv-x="1485" d="M88 745q0 229 83.5 397.5t238.5 258.5t364 90q240 0 395 -108.5t217 -321.5l-292 -70q-73 246 -324 246q-121 0 -206 -64t-128 -176.5t-43 -257.5q0 -155 44 -270t128 -177.5t201 -62.5q82 0 152 36t119.5 103t72.5 158l293 -69q-34 -145 -118.5 -253.5t-214.5 -168.5 t-296 -60q-216 0 -370 92t-235 265.5t-81 412.5z" />
<glyph unicode="D" horiz-adv-x="1471" d="M154 0v1466h576q653 0 653 -744q0 -336 -160.5 -529t-495.5 -193h-573zM449 248h237q147 0 231.5 45.5t122 150t37.5 287.5q0 181 -41 287t-126.5 153t-227.5 47h-233v-970z" />
<glyph unicode="E" horiz-adv-x="1253" d="M154 0v1466h966v-248h-671v-335h616v-248h-616v-387h706v-248h-1001z" />
<glyph unicode="F" horiz-adv-x="1221" d="M152 0v1466h985v-248h-691v-363h615v-247h-615v-608h-294z" />
<glyph unicode="G" horiz-adv-x="1557" d="M88 737q0 227 89 397.5t251 263.5t374 93q251 0 402 -108t211 -322l-295 -55q-32 113 -112 172t-206 59q-191 0 -299.5 -123t-108.5 -364q0 -162 46.5 -279t137.5 -179.5t221 -62.5q93 0 183.5 28t155.5 81v201h-342v248h637v-584q-67 -64 -168 -116t-221.5 -82 t-243.5 -30q-224 0 -384.5 95.5t-244 267.5t-83.5 399z" />
<glyph unicode="H" horiz-adv-x="1477" d="M154 0v1466h295v-565h579v565h295v-1466h-295v653h-579v-653h-295z" />
<glyph unicode="I" horiz-adv-x="603" d="M154 0v1466h295v-1466h-295z" />
<glyph unicode="J" horiz-adv-x="1117" d="M32 455l279 37q4 -141 49 -202t136 -61q67 0 106 26.5t56.5 87t17.5 163.5v960h295v-959q0 -259 -113.5 -395.5t-372.5 -136.5q-222 0 -335 119t-118 361z" />
<glyph unicode="K" horiz-adv-x="1452" d="M154 0v1466h295v-651l589 651h368l-531 -582l572 -884h-368l-409 677l-221 -235v-442h-295z" />
<glyph unicode="L" horiz-adv-x="1158" d="M154 0v1466h295v-1218h655v-248h-950z" />
<glyph unicode="M" horiz-adv-x="1784" d="M154 0v1466h443l298 -1038l290 1038h445v-1466h-275v1155l-319 -1155h-284l-323 1155v-1155h-275z" />
<glyph unicode="N" horiz-adv-x="1469" d="M154 0v1466h287l599 -979v979h275v-1466h-297l-589 956v-956h-275z" />
<glyph unicode="O" horiz-adv-x="1608" d="M88 725q0 232 87.5 404.5t249.5 267t378 94.5q217 0 379 -94t250 -266t88 -400q0 -222 -86.5 -393.5t-247.5 -267t-379 -95.5t-381 94.5t-250.5 265t-87.5 390.5zM394 733q0 -147 48 -261t141 -178.5t222 -64.5q127 0 219.5 64t141 179t48.5 265q0 144 -48.5 257.5 t-141 178t-221.5 64.5q-126 0 -218.5 -64.5t-141.5 -178.5t-49 -261z" />
<glyph unicode="P" horiz-adv-x="1287" d="M154 0v1466h518q283 0 415 -114t132 -337q0 -237 -134 -350t-413 -113h-223v-552h-295zM449 800h218q133 0 189.5 53.5t56.5 156.5q0 100 -60 154t-186 54h-218v-418z" />
<glyph unicode="Q" horiz-adv-x="1608" d="M88 725q0 232 87.5 405.5t249.5 267t378 93.5q217 0 379 -94t250 -266t88 -400q0 -165 -48.5 -303.5t-139.5 -238.5q58 -44 116 -75.5t125 -52.5l-110 -208q-80 24 -168 76t-161 114q-145 -68 -327 -68q-218 0 -381 94.5t-250.5 265t-87.5 390.5zM394 733q0 -147 48 -261 t141 -178.5t222 -64.5q58 0 112 14q-35 23 -85 48.5t-95 42.5l82 180q135 -47 281 -151q56 68 85 163t29 211q0 144 -48.5 257.5t-141 178t-221.5 64.5q-126 0 -218.5 -64.5t-141.5 -178.5t-49 -261z" />
<glyph unicode="R" horiz-adv-x="1380" d="M154 0v1466h608q246 0 380 -106t134 -305q0 -155 -78.5 -255t-241.5 -147v-4q38 -14 69 -40t65 -76.5t77 -138.5l193 -394h-324l-140 293q-74 155 -124 217q-33 41 -65.5 62.5t-82 30.5t-134.5 9h-41v-612h-295zM449 846h251q134 0 202.5 43t68.5 148q0 96 -57.5 139 t-178.5 43h-286v-373z" />
<glyph unicode="S" horiz-adv-x="1323" d="M70 467l295 36q26 -144 98.5 -212t205.5 -68q80 0 141.5 22.5t95.5 63.5t34 97q0 64 -24.5 100t-96 65.5t-223.5 65.5q-179 43 -283 106t-147.5 145t-43.5 192q0 120 61.5 213t179.5 145.5t282 52.5q236 0 375.5 -108.5t173.5 -315.5l-295 -33q-14 114 -79 163.5 t-189 49.5q-94 0 -157.5 -38t-63.5 -107q0 -46 29 -78.5t99 -59.5t199 -57q194 -45 302.5 -108.5t152 -152t43.5 -219.5q0 -152 -79.5 -253.5t-209.5 -150t-285 -48.5q-249 0 -403 127t-188 365z" />
<glyph unicode="T" horiz-adv-x="1243" d="M50 1218v248h1143v-248h-424v-1218h-295v1218h-424z" />
<glyph unicode="U" horiz-adv-x="1462" d="M146 602v864h295v-873q0 -131 30.5 -210.5t95.5 -116.5t172 -37q113 0 173.5 37t84.5 115.5t24 215.5v869h295v-862q0 -224 -54 -361t-178 -202.5t-338 -65.5q-225 0 -356.5 69t-187.5 205.5t-56 352.5z" />
<glyph unicode="V" horiz-adv-x="1352" d="M4 1466h322l288 -851q40 -117 70 -249h4q32 140 68 247l279 853h313l-519 -1466h-308z" />
<glyph unicode="W" horiz-adv-x="1921" d="M8 1466h308l175 -835q21 -96 36 -206h4q14 95 43 205l217 836h352l209 -841q23 -90 44 -217h4q18 120 38 218l172 840h303l-351 -1466h-315l-248 951q-25 93 -38 186h-4q-16 -105 -36 -180l-246 -957h-322z" />
<glyph unicode="X" horiz-adv-x="1374" d="M5 0l502 766l-455 700h346l214 -341q41 -66 79 -150h4q30 73 73 143l212 348h344l-457 -712l502 -754h-356l-244 378q-40 62 -80 148h-4q-38 -82 -81 -149l-243 -377h-356z" />
<glyph unicode="Y" horiz-adv-x="1340" d="M-5 1466h346l224 -395q65 -114 108 -209h4q40 86 108 208l220 396h340l-528 -852v-614h-295v616z" />
<glyph unicode="Z" horiz-adv-x="1251" d="M24 0v266l770 952h-684v248h1073v-231l-803 -987h833v-248h-1189z" />
<glyph unicode="[" d="M145 -414v1880h498v-221h-229v-1438h229v-221h-498z" />
<glyph unicode="\" horiz-adv-x="569" d="M2 1466h211l358 -1515h-207z" />
<glyph unicode="]" d="M39 -193h229v1438h-229v221h498v-1880h-498v221z" />
<glyph unicode="^" horiz-adv-x="1196" d="M114 668l373 798h222l373 -798h-284l-200 489l-200 -489h-284z" />
<glyph unicode="_" horiz-adv-x="1024" d="M-12 -154h1048v-102h-1048v102z" />
<glyph unicode="`" d="M43 1491h313l140 -295h-179z" />
<glyph unicode="a" horiz-adv-x="1126" d="M70 293q0 141 92 224t284 113t270 58v20q0 93 -45.5 127.5t-134.5 34.5q-70 0 -117 -32t-71 -101l-256 39q42 160 156 234.5t305 74.5q155 0 252.5 -39.5t144.5 -125.5t47 -225v-433q0 -76 11 -127t51 -135h-277q-21 46 -34 117q-141 -142 -330 -142q-104 0 -183 40 t-122 112.5t-43 165.5zM351 309q0 -65 37 -100t106 -35t127 35q40 24 59.5 50.5t27.5 71.5t8 126v51q-74 -27 -215 -53q-150 -30 -150 -146z" />
<glyph unicode="b" horiz-adv-x="1253" d="M139 0v1466h281v-524h4q124 143 308 143q131 0 233.5 -65.5t160 -188.5t57.5 -290q0 -171 -58.5 -299.5t-160.5 -197.5t-229 -69q-111 0 -189.5 38t-140.5 127h-4v-140h-262zM418 553q0 -174 66 -264t183 -90q69 0 120.5 38t79.5 112t28 178q0 161 -61 247.5t-178 86.5 q-70 0 -124 -36t-84 -105.5t-30 -166.5z" />
<glyph unicode="c" horiz-adv-x="1127" d="M70 531q0 165 59 290t174 194.5t278 69.5q182 0 302 -84t164 -258l-275 -50q-17 82 -65.5 125t-123.5 43q-109 0 -167 -87.5t-58 -243.5q0 -146 58 -235.5t172 -89.5q79 0 130.5 52.5t67.5 150.5l276 -48q-44 -196 -165.5 -290.5t-322.5 -94.5q-163 0 -276.5 72.5 t-170.5 198t-57 285.5z" />
<glyph unicode="d" horiz-adv-x="1253" d="M70 541q0 162 57 285.5t161 191t240 67.5q93 0 170.5 -35.5t131.5 -101.5h3v518h281v-1466h-262v129h-4q-60 -80 -138.5 -117t-179.5 -37q-133 0 -237.5 69t-163.5 197t-59 300zM358 527q0 -104 28.5 -177.5t81 -112t123.5 -38.5q119 0 181.5 86t62.5 247q0 98 -30 172.5 t-84 115.5t-123 41q-114 0 -177 -89.5t-63 -244.5z" />
<glyph unicode="e" horiz-adv-x="1171" d="M70 524q0 153 61.5 281t179.5 204t281 76q155 0 269.5 -65.5t177.5 -192t63 -305.5v-86h-746q10 -118 69 -182t156 -64q89 0 146.5 40.5t79.5 107.5l280 -44q-56 -155 -182 -237t-309 -82q-172 0 -290 68t-177 191.5t-59 289.5zM357 641h465q-10 111 -70 170t-159 59 q-94 0 -159 -60.5t-77 -168.5z" />
<glyph unicode="f" d="M25 838v223h155v65q0 108 25.5 186.5t101 128.5t217.5 50q52 0 122.5 -10t111.5 -21l-53 -209q-34 12 -70 18.5t-62 6.5q-42 0 -66 -14t-35 -48t-11 -96v-57h205v-223h-205v-838h-281v838h-155z" />
<glyph unicode="g" horiz-adv-x="1253" d="M70 538q0 172 55 295t157.5 187.5t240.5 64.5q106 0 190 -39.5t135 -113.5h4v129h262v-964q0 -189 -56 -305t-171.5 -169t-298.5 -53q-449 0 -482 360l291 -47q10 -51 57.5 -74.5t144.5 -23.5q115 0 176.5 59t61.5 189v111h-4q-42 -63 -125 -103.5t-183 -40.5 q-134 0 -237.5 68.5t-160.5 191t-57 278.5zM358 552q0 -98 28 -174.5t80.5 -119.5t123.5 -43q73 0 128.5 42t86 117t30.5 173q0 90 -30.5 161.5t-87 112t-132.5 40.5q-72 0 -123 -38.5t-77.5 -108.5t-26.5 -162z" />
<glyph unicode="h" horiz-adv-x="1219" d="M139 0v1466h281v-522q57 71 138.5 106t165.5 35q175 0 268 -93.5t93 -262.5v-729h-281v663q0 102 -38 154.5t-127 52.5q-32 0 -68.5 -12t-62.5 -35q-31 -26 -49.5 -54t-28.5 -71.5t-10 -109.5v-588h-281z" />
<glyph unicode="i" horiz-adv-x="559" d="M139 0v1061h281v-1061h-281zM139 1206v260h281v-260h-281z" />
<glyph unicode="j" horiz-adv-x="562" d="M-93 -399l45 225q42 -8 74 -8q47 0 72 17t34.5 50t9.5 87v1089h281v-1087q0 -150 -36.5 -239t-106.5 -127t-176 -38q-44 0 -98 9t-99 22zM142 1206v260h281v-260h-281z" />
<glyph unicode="k" horiz-adv-x="1142" d="M139 0v1466h281v-778l335 373h341l-363 -387l387 -674h-318l-260 479l-122 -129v-350h-281z" />
<glyph unicode="l" horiz-adv-x="559" d="M139 0v1466h281v-1466h-281z" />
<glyph unicode="m" horiz-adv-x="1800" d="M139 0v1061h262v-135h2q61 80 138 119.5t180 39.5q200 0 291 -167q67 85 145.5 126t169.5 41q166 0 252.5 -94.5t86.5 -299.5v-691h-281v686q0 88 -35 136t-107 48q-60 0 -105 -34.5t-70 -99.5t-25 -156v-580h-281v671q0 94 -31 146.5t-107 52.5q-204 0 -204 -290v-580 h-281z" />
<glyph unicode="n" horiz-adv-x="1219" d="M139 0v1061h262v-139q57 80 140 121.5t183 41.5q175 0 268 -93.5t93 -262.5v-729h-281v663q0 102 -38 154.5t-127 52.5q-97 0 -158.5 -69.5t-60.5 -212.5v-588h-281z" />
<glyph unicode="o" horiz-adv-x="1212" d="M70 537q0 156 64 281t185 196t285 71q167 0 289 -71.5t185.5 -196t63.5 -282.5q0 -164 -64 -290.5t-185 -198t-287 -71.5t-287 71.5t-185 198.5t-64 292zM358 530q0 -99 30 -172.5t85.5 -113t130.5 -39.5t131.5 39t87.5 113t31 175q0 97 -30 170t-86.5 113.5t-134.5 40.5 q-70 0 -125.5 -39t-87.5 -113t-32 -174z" />
<glyph unicode="p" horiz-adv-x="1253" d="M139 -406v1467h262v-156h5q55 92 142.5 136t187.5 44q128 0 229.5 -69.5t159.5 -197.5t58 -298q0 -168 -57 -291.5t-158.5 -188.5t-234.5 -65q-103 0 -171.5 30t-136.5 109h-5v-520h-281zM418 507q0 -95 29.5 -164.5t83.5 -106.5t127 -37q116 0 176.5 85.5t60.5 248.5 q0 155 -60.5 241.5t-166.5 86.5q-109 0 -179.5 -84.5t-70.5 -269.5z" />
<glyph unicode="q" horiz-adv-x="1253" d="M70 520q0 170 58 298t160 197.5t230 69.5q95 0 179.5 -43.5t149.5 -135.5l1 -1h4v156h262v-1467h-281v523h-4q-63 -73 -139.5 -107.5t-169.5 -34.5q-131 0 -233 65t-159.5 188.5t-57.5 291.5zM358 533q0 -163 60.5 -253t175.5 -90q73 0 127.5 38t84 109.5t29.5 169.5 q0 123 -33.5 202.5t-90 116t-128.5 36.5q-68 0 -118.5 -39t-78.5 -113t-28 -177z" />
<glyph unicode="r" horiz-adv-x="856" d="M139 0v1061h260v-150h4q56 93 119 133.5t152 40.5q54 0 98.5 -12.5t87.5 -34.5l-90 -250q-22 15 -61.5 29t-69.5 14q-107 0 -163 -86t-56 -244v-501h-281z" />
<glyph unicode="s" horiz-adv-x="1049" d="M61 303l263 42q18 -84 68 -126.5t143 -42.5q80 0 128 30t48 83q0 29 -16 49.5t-59 36.5t-123 28q-221 34 -321 124t-100 240q0 97 51 169t146.5 110.5t226.5 38.5q186 0 300 -74t138 -210l-268 -39q-12 59 -58.5 91t-116.5 32q-67 0 -108 -23.5t-41 -64.5 q0 -31 19.5 -52.5t69 -39t138.5 -32.5q202 -34 298 -114.5t96 -226.5q0 -102 -54 -183.5t-155.5 -127.5t-238.5 -46q-209 0 -329 83.5t-145 244.5z" />
<glyph unicode="t" horiz-adv-x="713" d="M20 838v223h150v194l281 199v-393h198v-223h-198v-517q0 -46 6.5 -69.5t23 -33t49.5 -9.5q52 0 111 16l35 -217q-46 -15 -102 -24t-113 -9q-112 0 -175 31t-89.5 101.5t-26.5 194.5v536h-150z" />
<glyph unicode="u" horiz-adv-x="1219" d="M134 333v728h281v-663q0 -106 40 -157t126 -51q52 0 101.5 24.5t83 87.5t33.5 169v590h281v-1061h-262v139q-56 -79 -139.5 -121.5t-182.5 -42.5q-177 0 -269.5 94t-92.5 264z" />
<glyph unicode="v" horiz-adv-x="1124" d="M20 1061h295l191 -542q31 -89 55 -178l4 -1q34 110 58 180l192 541h289l-412 -1061h-254z" />
<glyph unicode="w" horiz-adv-x="1611" d="M24 1061h281l137 -518q11 -42 28 -116q14 -61 19 -80h4q25 121 44 198l133 516h272l131 -524q22 -86 40 -190h4q17 83 46 189l143 525h281l-330 -1061h-270l-142 539q-23 86 -38 175h-4q-15 -87 -38 -175l-141 -539h-272z" />
<glyph unicode="x" horiz-adv-x="1126" d="M24 0l368 547l-351 514h339l87 -144q35 -58 87 -162h4q73 129 93 161l94 145h324l-345 -502l378 -559h-339l-129 206q-51 82 -76 139h-4q-25 -58 -80 -144l-127 -201h-323z" />
<glyph unicode="y" horiz-adv-x="1139" d="M18 1061h299l207 -604q19 -54 45 -150h4q31 110 42 143l204 611h291l-408 -1092q-94 -249 -181 -323q-89 -76 -250 -76q-73 0 -193 27l47 215q62 -19 99 -19q51 0 83.5 16t59.5 59.5t57 129.5z" />
<glyph unicode="z" horiz-adv-x="1030" d="M38 0v219l535 608h-496v234h876v-199l-534 -614h567v-248h-948z" />
<glyph unicode="{" horiz-adv-x="797" d="M56 409v244q78 0 125.5 29t69.5 91.5t22 165.5v140q0 155 38.5 244t126.5 128.5t242 39.5h61v-236h-49q-72 0 -104.5 -18.5t-43.5 -64.5t-11 -146v-98q0 -113 -15.5 -184t-59.5 -122.5t-129 -90.5q85 -39 129 -90.5t59.5 -122.5t15.5 -184v-99q0 -100 11 -146t43.5 -64.5 t104.5 -18.5h49v-236h-61q-154 0 -242 39.5t-126.5 128.5t-38.5 244v141q0 102 -21.5 164.5t-68.5 92t-127 29.5z" />
<glyph unicode="|" horiz-adv-x="575" d="M176 -403v1869h223v-1869h-223z" />
<glyph unicode="}" horiz-adv-x="797" d="M56 -194h49q72 0 104.5 18.5t43.5 64.5t11 146v99q0 113 15.5 184t59.5 122.5t129 90.5q-85 39 -129 90.5t-59.5 122.5t-15.5 184v98q0 100 -11 146t-43.5 64.5t-104.5 18.5h-49v236h61q154 0 242 -39.5t126.5 -128.5t38.5 -244v-140q0 -103 22 -165.5t69.5 -91.5 t125.5 -29v-244q-80 0 -127 -29.5t-68.5 -92t-21.5 -164.5v-141q0 -155 -38.5 -244t-126.5 -128.5t-242 -39.5h-61v236z" />
<glyph unicode="~" horiz-adv-x="1196" d="M86 522v260q61 69 129.5 103.5t158.5 34.5q111 0 262 -68q153 -68 214 -68q49 0 117 32.5t143 111.5v-269q-15 -21 -61.5 -53t-107.5 -56t-119 -24q-103 0 -241 68q-139 68 -231 68q-70 0 -135 -34.5t-129 -105.5z" />
<glyph horiz-adv-x="0" />
<glyph unicode="&#xa1;" d="M188 -61l72 743h162l72 -743v-345h-306v345zM197 773v288h288v-288h-288z" />
<glyph unicode="&#xa2;" horiz-adv-x="1163" d="M75 531q0 165 59 290t174 194.5t278 69.5q43 0 97 -7l114 378l121 -34l-114 -377q98 -40 165.5 -116.5t96.5 -185.5l-275 -50q-14 69 -59 114l-181 -599q20 -3 42 -3q79 0 130.5 52.5t67.5 150.5l276 -48q-44 -196 -165.5 -290.5t-322.5 -94.5q-43 0 -96 7l-116 -385 l-121 34l116 385q-140 60 -213.5 196.5t-73.5 318.5zM363 530q0 -83 19 -149.5t57 -109.5l178 589q-8 1 -24 1q-110 0 -170 -88t-60 -243z" />
<glyph unicode="&#xa3;" horiz-adv-x="1163" d="M42 217l2 1q205 149 205 335q0 33 -6 63h-201v204h152q-19 50 -31 119.5t-12 124.5q0 109 53.5 202.5t157 150t247.5 56.5q205 0 325 -99.5t147 -287.5l-271 -39q-18 100 -66.5 146t-127.5 46q-54 0 -96 -23.5t-65 -64.5t-23 -91q0 -41 13.5 -107t36.5 -133h310v-204 h-265q4 -32 4 -57q0 -83 -43 -160.5t-114 -140.5l4 -4q47 29 137 29q25 0 62.5 -7t102.5 -22q112 -25 143 -25q80 0 204 56l110 -237q-68 -35 -141 -54t-137 -19q-92 0 -237 43t-225 43q-63 0 -123 -20.5t-125 -65.5z" />
<glyph unicode="&#xa4;" horiz-adv-x="1163" d="M61 1071l166 178l135 -135q97 57 219 57q62 0 117.5 -14t99.5 -43l136 135l167 -170l-133 -133q58 -109 58 -217q0 -113 -58 -219l133 -133l-165 -170l-138 135q-46 -27 -101 -42t-116 -15q-113 0 -215 55l-131 -131l-170 170l131 131q-57 104 -57 218q0 116 52 213l1 1z M381 729q0 -53 27 -100t73 -75t100 -28t100.5 28t74.5 74.5t28 100.5t-28.5 100.5t-75.5 73.5t-100 27q-52 0 -98 -27.5t-73.5 -74t-27.5 -99.5z" />
<glyph unicode="&#xa5;" horiz-adv-x="1163" d="M18 1446h307l200 -404q21 -44 33.5 -76t18.5 -67h4q14 64 54 143l202 404h307l-365 -669h305v-155h-366v-135h366v-155h-366v-332h-280v332h-360v155h360v135h-360v155h300z" />
<glyph unicode="&#xa6;" horiz-adv-x="575" d="M176 362h223v-765h-223v765zM176 700v766h223v-766h-223z" />
<glyph unicode="&#xa7;" horiz-adv-x="1139" d="M72 609q0 103 51.5 186.5t134.5 137.5q-98 95 -98 236q0 92 48.5 165t139.5 115t215 42q193 0 300 -86.5t132 -249.5l-276 -34q-6 71 -43 113t-107 42q-57 0 -91 -28t-34 -73q0 -40 23 -71t75 -64q78 -49 253 -166q101 -68 159.5 -125.5t85.5 -120t27 -143.5 q0 -96 -47 -176t-135 -137q111 -104 111 -256q0 -98 -51.5 -177t-149 -124t-229.5 -45q-128 0 -227.5 43.5t-160.5 125t-76 193.5l276 34q18 -88 68 -134.5t128 -46.5q61 0 99.5 32t38.5 85q0 29 -13 54t-46 55q-27 24 -75.5 57t-144.5 93q-159 100 -236 171t-101 131.5 t-24 145.5zM328 665q0 -36 11 -65t43.5 -64t95.5 -78l245 -157q43 31 65.5 69.5t22.5 77.5t-20.5 72.5t-80.5 75.5l-291 206q-41 -25 -66 -62t-25 -75z" />
<glyph unicode="&#xa8;" d="M4 1225v241h242v-241h-242zM436 1225v241h242v-241h-242z" />
<glyph unicode="&#xa9;" horiz-adv-x="1614" d="M40 724q0 209 103 385t279 279.5t385 103.5t385 -103.5t279 -279.5t103 -385t-103 -384.5t-279 -278.5t-385 -103t-385 103t-279 278.5t-103 384.5zM190 725q0 -168 83 -309.5t224.5 -224.5t309.5 -83t309.5 83t224.5 224.5t83 309.5t-83 309.5t-224.5 224.5t-309.5 83 t-309.5 -83t-224.5 -224.5t-83 -309.5zM430 734q0 129 46.5 227t132.5 151.5t200 53.5q130 0 217.5 -60t126.5 -181l-162 -45q-22 69 -67.5 106t-110.5 37q-100 0 -153.5 -76t-53.5 -208q0 -136 55 -209.5t152 -73.5q64 0 107 38.5t71 128.5l162 -51q-36 -124 -123.5 -192 t-212.5 -68q-110 0 -198 49.5t-138.5 145t-50.5 227.5z" />
<glyph unicode="&#xaa;" horiz-adv-x="794" d="M58 946q0 69 20.5 113.5t69.5 72.5t137 43q137 23 208 52q0 56 -26.5 82t-79.5 26q-55 0 -83.5 -20t-39.5 -59l-188 34q22 97 98 149t210 52q163 0 239 -68t76 -221v-237q0 -78 10.5 -126t30.5 -81h-202q-10 19 -15.5 46t-6.5 33q-51 -48 -109 -73t-130 -25 q-63 0 -113 28t-78 75.5t-28 103.5zM264 970q0 -38 23.5 -62t56.5 -24q37 0 60.5 11t46.5 32q22 21 32 47t10 71v56q-27 -18 -126 -37q-50 -9 -76.5 -34.5t-26.5 -59.5z" />
<glyph unicode="&#xab;" horiz-adv-x="1104" d="M86 531l317 452h221l-260 -451l260 -462h-221l-315 460zM507 532l315 451h222l-260 -451l260 -462h-222z" />
<glyph unicode="&#xac;" horiz-adv-x="1196" d="M86 811v264h1014v-702h-264v438h-750z" />
<glyph unicode="&#xad;" horiz-adv-x="741" d="M95 391v281h551v-281h-551z" />
<glyph unicode="&#xae;" horiz-adv-x="1614" d="M40 724q0 209 103 385t279 279.5t385 103.5t385 -103.5t279 -279.5t103 -385t-103 -384.5t-279 -278.5t-385 -103t-385 103t-279 278.5t-103 384.5zM190 725q0 -168 83 -309.5t224.5 -224.5t309.5 -83t309.5 83t224.5 224.5t83 309.5t-83 309.5t-224.5 224.5t-309.5 83 t-309.5 -83t-224.5 -224.5t-83 -309.5zM469 325v813h368q147 0 219 -56t72 -171q0 -87 -58.5 -151t-160.5 -80q43 -17 70.5 -42.5t55.5 -71.5l143 -241h-198l-97 182q-31 58 -57 90t-59.5 47t-83.5 15h-46v-334h-168zM637 788h163q152 0 152 113q0 54 -37 81t-117 27h-161 v-221z" />
<glyph unicode="&#xaf;" horiz-adv-x="1024" d="M-12 1621v102h1048v-102h-1048z" />
<glyph unicode="&#xb0;" horiz-adv-x="820" d="M92 1155q0 86 43 159t116 116t159 43t159 -43t116 -116t43 -159t-43 -159.5t-116 -116t-159 -42.5t-159 42.5t-116 116t-43 159.5zM256 1155q0 -42 20.5 -77.5t56 -56t77.5 -20.5t77.5 20.5t56 56t20.5 77.5t-20.5 77.5t-56 56t-77.5 20.5t-77.5 -20.5t-56 -56 t-20.5 -77.5z" />
<glyph unicode="&#xb1;" horiz-adv-x="1196" d="M86 0v262h1024v-262h-1024zM86 737v262h381v381h262v-381h381v-262h-381v-383h-262v383h-381z" />
<glyph unicode="&#xb2;" d="M25 705q8 72 34.5 131t79.5 115.5t142 118.5q86 59 118 95.5t32 69.5q0 88 -93 88q-47 0 -74 -29t-31 -85v-1l-188 16q28 242 301 242q91 0 154 -29.5t94.5 -81t31.5 -116.5q0 -79 -45 -140.5t-126 -112.5q-113 -72 -151 -123h327v-158h-606z" />
<glyph unicode="&#xb3;" d="M44 916l184 19q0 -49 29 -78t79 -29t77.5 30t27.5 79q0 46 -26.5 74t-89.5 28q-36 0 -65 -6l19 137q76 0 107 21.5t31 62.5q0 35 -22 52t-61 17q-86 0 -100 -100l-173 25q22 104 88.5 161t191.5 57t194.5 -56t69.5 -152q0 -92 -96 -145q127 -47 127 -184 q0 -71 -36 -126.5t-104 -86.5t-159 -31q-125 0 -201.5 60.5t-91.5 170.5z" />
<glyph unicode="&#xb4;" d="M186 1196l140 295h313l-274 -295h-179z" />
<glyph unicode="&#xb5;" horiz-adv-x="1247" d="M139 -403v1464h281v-601q0 -127 51.5 -194t147.5 -67q95 0 151.5 65t56.5 187v610h281v-1061h-262v129q-87 -154 -215 -154q-72 0 -121.5 34t-89.5 120v-532h-281z" />
<glyph unicode="&#xb6;" horiz-adv-x="1139" d="M40 1053q0 156 53 246.5t154.5 128.5t258.5 38h619v-230h-112v-1639h-238v1639h-149v-1639h-238v1046q-168 15 -258 122t-90 288z" />
<glyph unicode="&#xb7;" horiz-adv-x="568" d="M140 575v288h288v-288h-288z" />
<glyph unicode="&#xb8;" d="M75 -419l14 135q58 -8 111 -8q75 0 111 13.5t36 44.5q0 27 -22 40.5t-55 13.5q-31 0 -61 -7l51 210h140l-26 -108q106 -8 158 -46.5t52 -112.5q0 -53 -38.5 -95t-117.5 -66.5t-195 -24.5q-29 0 -76.5 3.5t-81.5 7.5z" />
<glyph unicode="&#xb9;" d="M90 1124v153q91 24 159 74.5t93 114.5h154v-761h-191v522q-50 -40 -105.5 -66t-109.5 -37z" />
<glyph unicode="&#xba;" horiz-adv-x="851" d="M58 1116q0 112 44.5 197t127 131.5t194.5 46.5q110 0 194 -46.5t129.5 -131.5t45.5 -197q0 -114 -44.5 -199t-128 -131.5t-196.5 -46.5q-112 0 -194.5 46t-127 131.5t-44.5 199.5zM270 1112q0 -95 40 -150t112 -55q74 0 116.5 56.5t42.5 149.5q0 99 -41 154.5t-119 55.5 q-71 0 -111 -58t-40 -153z" />
<glyph unicode="&#xbb;" horiz-adv-x="1103" d="M60 70l261 450l-261 463h222l315 -463l-315 -450h-222zM480 70l260 450l-260 463h222l315 -463l-315 -450h-222z" />
<glyph unicode="&#xbc;" horiz-adv-x="1622" d="M90 1124v153q91 24 159 74.5t93 114.5h154v-761h-191v522q-50 -40 -105.5 -66t-109.5 -37zM318 -25l868 1498h158l-868 -1498h-158zM960 135v141l371 485h159v-480h105v-146h-105v-135h-184v135h-346zM1128 281h178v227z" />
<glyph unicode="&#xbd;" horiz-adv-x="1622" d="M90 1124v153q91 24 159 74.5t93 114.5h154v-761h-191v522q-50 -40 -105.5 -66t-109.5 -37zM288 -25l868 1498h158l-868 -1498h-158zM965 0q8 72 34.5 131t79.5 115.5t142 118.5q86 59 118 95.5t32 69.5q0 88 -93 88q-47 0 -74 -29t-31 -85v-1l-188 16q28 242 301 242 q91 0 154 -29.5t94.5 -81t31.5 -116.5q0 -79 -45 -140.5t-126 -112.5q-113 -72 -151 -123h327v-158h-606z" />
<glyph unicode="&#xbe;" horiz-adv-x="1622" d="M44 916l184 19q0 -49 29 -78t79 -29t77.5 30t27.5 79q0 46 -26.5 74t-89.5 28q-36 0 -65 -6l19 137q76 0 107 21.5t31 62.5q0 35 -22 52t-61 17q-86 0 -100 -100l-173 25q22 104 88.5 161t191.5 57t194.5 -56t69.5 -152q0 -92 -96 -145q127 -47 127 -184 q0 -71 -36 -126.5t-104 -86.5t-159 -31q-125 0 -201.5 60.5t-91.5 170.5zM348 -25l868 1498h158l-868 -1498h-158zM960 135v141l371 485h159v-480h105v-146h-105v-135h-184v135h-346zM1128 281h178v227z" />
<glyph unicode="&#xbf;" horiz-adv-x="1115" d="M92 -5q0 71 20.5 126t71.5 114t149 141q61 51 88 88t35 76t8 110v32h256v-35q0 -131 -14 -183q-17 -64 -61.5 -131t-115.5 -123q-83 -65 -119.5 -117.5t-36.5 -103.5q0 -59 25.5 -102t69 -65t94.5 -22q90 0 145.5 59.5t73.5 176.5l262 -32q-11 -134 -73.5 -232t-166 -150 t-235.5 -52q-135 0 -243.5 52t-170.5 148.5t-62 224.5zM448 773v288h288v-288h-288z" />
<glyph unicode="&#xc0;" horiz-adv-x="1460" d="M4 0l571 1466h293l588 -1466h-323l-127 332h-566l-121 -332h-315zM440 1862h328l125 -295h-194zM530 580h381l-123 331q-24 64 -42.5 131t-24.5 109h-8q-18 -120 -62 -240z" />
<glyph unicode="&#xc1;" horiz-adv-x="1460" d="M4 0l571 1466h293l588 -1466h-323l-127 332h-566l-121 -332h-315zM530 580h381l-123 331q-24 64 -42.5 131t-24.5 109h-8q-18 -120 -62 -240zM561 1567l125 295h328l-259 -295h-194z" />
<glyph unicode="&#xc2;" horiz-adv-x="1460" d="M4 0l571 1466h293l588 -1466h-323l-127 332h-566l-121 -332h-315zM371 1567l220 295h258l220 -295h-235l-114 140l-114 -140h-235zM530 580h381l-123 331q-24 64 -42.5 131t-24.5 109h-8q-18 -120 -62 -240z" />
<glyph unicode="&#xc3;" horiz-adv-x="1460" d="M4 0l571 1466h293l588 -1466h-323l-127 332h-566l-121 -332h-315zM378 1577v5q0 131 51.5 203t151.5 72q39 0 73 -10.5t74 -30.5q41 -19 68 -27.5t58 -8.5q28 0 46 22t18 65h154q0 -138 -51.5 -208.5t-151.5 -70.5q-41 0 -80 11.5t-86 32.5q-38 17 -63.5 25t-46.5 8 q-31 0 -46 -20.5t-15 -65.5v-2h-154zM530 580h381l-123 331q-24 64 -42.5 131t-24.5 109h-8q-18 -120 -62 -240z" />
<glyph unicode="&#xc4;" horiz-adv-x="1460" d="M4 0l571 1466h293l588 -1466h-323l-127 332h-566l-121 -332h-315zM376 1596v251h252v-251h-252zM530 580h381l-123 331q-24 64 -42.5 131t-24.5 109h-8q-18 -120 -62 -240zM806 1596v251h252v-251h-252z" />
<glyph unicode="&#xc5;" horiz-adv-x="1460" d="M4 0l569 1462q-24 26 -37 60t-13 72q0 57 26.5 101.5t71.5 69.5t99 25q53 0 97.5 -25t71 -69.5t26.5 -101.5q0 -74 -48 -128h1l588 -1466h-323l-127 332h-566l-121 -332h-315zM530 580h381l-123 341q-23 63 -42 135t-25 115h-8q-20 -130 -62 -250zM630 1594 q0 -39 24.5 -63.5t65.5 -24.5q39 0 63.5 24t24.5 64q0 38 -24.5 64t-64.5 26t-64.5 -25.5t-24.5 -64.5z" />
<glyph unicode="&#xc6;" horiz-adv-x="2069" d="M-12 0l684 1466h1264v-248h-671v-335h616v-248h-616v-387h706v-248h-996v332h-513l-146 -332h-328zM568 580h409v648h-125z" />
<glyph unicode="&#xc7;" horiz-adv-x="1485" d="M88 745q0 229 83.5 397.5t238.5 258.5t364 90q240 0 395 -108.5t217 -321.5l-292 -70q-73 246 -324 246q-121 0 -206 -64t-128 -176.5t-43 -257.5q0 -155 44 -270t128 -177.5t201 -62.5q82 0 152 36t119.5 103t72.5 158l293 -69q-34 -142 -116.5 -249.5t-209.5 -168.5 t-289 -63l-14 -61q106 -8 158 -46.5t52 -112.5q0 -53 -38.5 -95t-117.5 -66.5t-195 -24.5q-29 0 -76.5 3.5t-81.5 7.5l14 135q58 -8 111 -8q72 0 109.5 13.5t37.5 44.5q0 27 -22 40.5t-55 13.5q-31 0 -61 -7l41 171q-178 25 -304 123t-192 260t-66 378z" />
<glyph unicode="&#xc8;" horiz-adv-x="1253" d="M154 0v1466h966v-248h-671v-335h616v-248h-616v-387h706v-248h-1001zM341 1862h328l125 -295h-194z" />
<glyph unicode="&#xc9;" horiz-adv-x="1253" d="M154 0v1466h966v-248h-671v-335h616v-248h-616v-387h706v-248h-1001zM486 1567l125 295h328l-259 -295h-194z" />
<glyph unicode="&#xca;" horiz-adv-x="1253" d="M154 0v1466h966v-248h-671v-335h616v-248h-616v-387h706v-248h-1001zM290 1567l220 295h258l220 -295h-235l-114 140l-114 -140h-235z" />
<glyph unicode="&#xcb;" horiz-adv-x="1253" d="M154 0v1466h966v-248h-671v-335h616v-248h-616v-387h706v-248h-1001zM310 1596v251h252v-251h-252zM740 1596v251h252v-251h-252z" />
<glyph unicode="&#xcc;" horiz-adv-x="603" d="M5 1862h328l125 -295h-194zM154 0v1466h295v-1466h-295z" />
<glyph unicode="&#xcd;" horiz-adv-x="603" d="M149 1567l125 295h328l-259 -295h-194zM154 0v1466h295v-1466h-295z" />
<glyph unicode="&#xce;" horiz-adv-x="603" d="M-46 1567l220 295h258l220 -295h-235l-114 140l-114 -140h-235zM154 0v1466h295v-1466h-295z" />
<glyph unicode="&#xcf;" horiz-adv-x="603" d="M-39 1596v251h252v-251h-252zM154 0v1466h295v-1466h-295zM391 1596v251h252v-251h-252z" />
<glyph unicode="&#xd0;" horiz-adv-x="1471" d="M2 629v205h152v632h576q653 0 653 -744q0 -336 -160.5 -529t-495.5 -193h-573v629h-152zM449 248h237q147 0 231.5 45.5t122 150t37.5 287.5q0 181 -41 287t-126.5 153t-227.5 47h-233v-384h313v-205h-313v-381z" />
<glyph unicode="&#xd1;" horiz-adv-x="1469" d="M154 0v1466h287l599 -979v979h275v-1466h-297l-589 956v-956h-275zM391 1577v5q0 131 51.5 203t151.5 72q39 0 73 -10.5t74 -30.5q41 -19 68 -27.5t58 -8.5q28 0 46 22t18 65h154q0 -138 -51.5 -208.5t-151.5 -70.5q-41 0 -80 11.5t-86 32.5q-38 17 -63.5 25t-46.5 8 q-31 0 -46 -20.5t-15 -65.5v-2h-154z" />
<glyph unicode="&#xd2;" horiz-adv-x="1608" d="M88 725q0 232 87.5 404.5t249.5 267t378 94.5q217 0 379 -94t250 -266t88 -400q0 -222 -86.5 -393.5t-247.5 -267t-379 -95.5t-381 94.5t-250.5 265t-87.5 390.5zM394 733q0 -147 48 -261t141 -178.5t222 -64.5q127 0 219.5 64t141 179t48.5 265q0 144 -48.5 257.5 t-141 178t-221.5 64.5q-126 0 -218.5 -64.5t-141.5 -178.5t-49 -261zM500 1862h328l125 -295h-194z" />
<glyph unicode="&#xd3;" horiz-adv-x="1608" d="M88 725q0 232 87.5 404.5t249.5 267t378 94.5q217 0 379 -94t250 -266t88 -400q0 -222 -86.5 -393.5t-247.5 -267t-379 -95.5t-381 94.5t-250.5 265t-87.5 390.5zM394 733q0 -147 48 -261t141 -178.5t222 -64.5q127 0 219.5 64t141 179t48.5 265q0 144 -48.5 257.5 t-141 178t-221.5 64.5q-126 0 -218.5 -64.5t-141.5 -178.5t-49 -261zM645 1567l125 295h328l-259 -295h-194z" />
<glyph unicode="&#xd4;" horiz-adv-x="1608" d="M88 725q0 232 87.5 404.5t249.5 267t378 94.5q217 0 379 -94t250 -266t88 -400q0 -222 -86.5 -393.5t-247.5 -267t-379 -95.5t-381 94.5t-250.5 265t-87.5 390.5zM394 733q0 -147 48 -261t141 -178.5t222 -64.5q127 0 219.5 64t141 179t48.5 265q0 144 -48.5 257.5 t-141 178t-221.5 64.5q-126 0 -218.5 -64.5t-141.5 -178.5t-49 -261zM449 1567l220 295h258l220 -295h-235l-114 140l-114 -140h-235z" />
<glyph unicode="&#xd5;" horiz-adv-x="1608" d="M88 725q0 232 87.5 404.5t249.5 267t378 94.5q217 0 379 -94t250 -266t88 -400q0 -222 -86.5 -393.5t-247.5 -267t-379 -95.5t-381 94.5t-250.5 265t-87.5 390.5zM394 733q0 -147 48 -261t141 -178.5t222 -64.5q127 0 219.5 64t141 179t48.5 265q0 144 -48.5 257.5 t-141 178t-221.5 64.5q-126 0 -218.5 -64.5t-141.5 -178.5t-49 -261zM459 1577v5q0 131 51.5 203t151.5 72q39 0 73 -10.5t74 -30.5q41 -19 68 -27.5t58 -8.5q28 0 46 22t18 65h154q0 -138 -51.5 -208.5t-151.5 -70.5q-41 0 -80 11.5t-86 32.5q-38 17 -63.5 25t-46.5 8 q-31 0 -46 -20.5t-15 -65.5v-2h-154z" />
<glyph unicode="&#xd6;" horiz-adv-x="1608" d="M88 725q0 232 87.5 404.5t249.5 267t378 94.5q217 0 379 -94t250 -266t88 -400q0 -222 -86.5 -393.5t-247.5 -267t-379 -95.5t-381 94.5t-250.5 265t-87.5 390.5zM394 733q0 -147 48 -261t141 -178.5t222 -64.5q127 0 219.5 64t141 179t48.5 265q0 144 -48.5 257.5 t-141 178t-221.5 64.5q-126 0 -218.5 -64.5t-141.5 -178.5t-49 -261zM455 1596v251h252v-251h-252zM885 1596v251h252v-251h-252z" />
<glyph unicode="&#xd7;" horiz-adv-x="1196" d="M110 1026l186 184l303 -303l303 303l180 -182l-301 -303l305 -303l-186 -186l-305 305l-301 -303l-182 182l303 301z" />
<glyph unicode="&#xd8;" horiz-adv-x="1608" d="M66 35l174 197q-74 97 -113 222t-39 271q0 232 87.5 405.5t249.5 267t378 93.5q128 0 238.5 -34t198.5 -98l157 177l139 -123l-164 -185q72 -97 110 -223t38 -274q0 -222 -86.5 -393.5t-247.5 -267t-379 -95.5q-127 0 -236 33t-197 95l-169 -191zM394 733q0 -152 52 -270 l608 686q-104 88 -251 88q-126 0 -218.5 -64.5t-141.5 -178.5t-49 -261zM559 311q99 -82 246 -82q127 0 219.5 64t141 179t48.5 265q0 143 -49 258z" />
<glyph unicode="&#xd9;" horiz-adv-x="1462" d="M146 602v864h295v-873q0 -131 30.5 -210.5t95.5 -116.5t172 -37q113 0 173.5 37t84.5 115.5t24 215.5v869h295v-862q0 -224 -54 -361t-178 -202.5t-338 -65.5q-225 0 -356.5 69t-187.5 205.5t-56 352.5zM435 1862h328l125 -295h-194z" />
<glyph unicode="&#xda;" horiz-adv-x="1462" d="M146 602v864h295v-873q0 -131 30.5 -210.5t95.5 -116.5t172 -37q113 0 173.5 37t84.5 115.5t24 215.5v869h295v-862q0 -224 -54 -361t-178 -202.5t-338 -65.5q-225 0 -356.5 69t-187.5 205.5t-56 352.5zM581 1567l125 295h328l-259 -295h-194z" />
<glyph unicode="&#xdb;" horiz-adv-x="1462" d="M146 602v864h295v-873q0 -131 30.5 -210.5t95.5 -116.5t172 -37q113 0 173.5 37t84.5 115.5t24 215.5v869h295v-862q0 -224 -54 -361t-178 -202.5t-338 -65.5q-225 0 -356.5 69t-187.5 205.5t-56 352.5zM384 1567l220 295h258l220 -295h-235l-114 140l-114 -140h-235z " />
<glyph unicode="&#xdc;" horiz-adv-x="1462" d="M146 602v864h295v-873q0 -131 30.5 -210.5t95.5 -116.5t172 -37q113 0 173.5 37t84.5 115.5t24 215.5v869h295v-862q0 -224 -54 -361t-178 -202.5t-338 -65.5q-225 0 -356.5 69t-187.5 205.5t-56 352.5zM393 1596v251h252v-251h-252zM823 1596v251h252v-251h-252z" />
<glyph unicode="&#xdd;" horiz-adv-x="1340" d="M-5 1466h346l224 -395q65 -114 108 -209h4q40 86 108 208l220 396h340l-528 -852v-614h-295v616zM517 1567l125 295h328l-259 -295h-194z" />
<glyph unicode="&#xde;" horiz-adv-x="1287" d="M154 0v1466h295v-277h223q283 0 415 -114t132 -337q0 -237 -134 -350t-413 -113h-223v-275h-295zM449 523h218q133 0 189.5 53.5t56.5 156.5q0 100 -60 154t-186 54h-218v-418z" />
<glyph unicode="&#xdf;" horiz-adv-x="1246" d="M139 0v1049q0 149 44.5 246t143.5 146.5t263 49.5q133 0 227 -40t142 -111.5t48 -165.5q0 -110 -77 -205q-78 -97 -78 -140q0 -22 21 -49.5t68 -72.5q72 -69 120.5 -125t83.5 -125t35 -142q0 -103 -44.5 -180t-125 -118.5t-187.5 -41.5q-131 0 -208.5 43.5t-133.5 137.5 l215 123q21 -40 47 -60t62 -20q37 0 62 26.5t25 64.5q0 37 -17 70t-44.5 64t-84.5 88q-44 42 -84 85q-101 106 -101 183q0 44 20.5 90t69.5 115q39 55 53.5 90.5t14.5 74.5q0 55 -36.5 86t-96.5 31q-65 0 -101.5 -26t-50.5 -79t-14 -141v-1021h-281z" />
<glyph unicode="&#xe0;" horiz-adv-x="1126" d="M70 293q0 141 92 224t284 113t270 58v20q0 93 -45.5 127.5t-134.5 34.5q-70 0 -117 -32t-71 -101l-256 39q42 160 156 234.5t305 74.5q155 0 252.5 -39.5t144.5 -125.5t47 -225v-433q0 -76 11 -127t51 -135h-277q-21 46 -34 117q-141 -142 -330 -142q-104 0 -183 40 t-122 112.5t-43 165.5zM266 1491h313l140 -295h-179zM351 309q0 -65 37 -100t106 -35t127 35q40 24 59.5 50.5t27.5 71.5t8 126v51q-74 -27 -215 -53q-150 -30 -150 -146z" />
<glyph unicode="&#xe1;" horiz-adv-x="1126" d="M70 293q0 141 92 224t284 113t270 58v20q0 93 -45.5 127.5t-134.5 34.5q-70 0 -117 -32t-71 -101l-256 39q42 160 156 234.5t305 74.5q155 0 252.5 -39.5t144.5 -125.5t47 -225v-433q0 -76 11 -127t51 -135h-277q-21 46 -34 117q-141 -142 -330 -142q-104 0 -183 40 t-122 112.5t-43 165.5zM351 309q0 -65 37 -100t106 -35t127 35q40 24 59.5 50.5t27.5 71.5t8 126v51q-74 -27 -215 -53q-150 -30 -150 -146zM414 1196l140 295h313l-274 -295h-179z" />
<glyph unicode="&#xe2;" horiz-adv-x="1126" d="M70 293q0 141 92 224t284 113t270 58v20q0 93 -45.5 127.5t-134.5 34.5q-70 0 -117 -32t-71 -101l-256 39q42 160 156 234.5t305 74.5q155 0 252.5 -39.5t144.5 -125.5t47 -225v-433q0 -76 11 -127t51 -135h-277q-21 46 -34 117q-141 -142 -330 -142q-104 0 -183 40 t-122 112.5t-43 165.5zM227 1196l210 295h258l210 -295h-225l-114 150l-114 -150h-225zM351 309q0 -65 37 -100t106 -35t127 35q40 24 59.5 50.5t27.5 71.5t8 126v51q-74 -27 -215 -53q-150 -30 -150 -146z" />
<glyph unicode="&#xe3;" horiz-adv-x="1126" d="M70 293q0 141 92 224t284 113t270 58v20q0 93 -45.5 127.5t-134.5 34.5q-70 0 -117 -32t-71 -101l-256 39q42 160 156 234.5t305 74.5q155 0 252.5 -39.5t144.5 -125.5t47 -225v-433q0 -76 11 -127t51 -135h-277q-21 46 -34 117q-141 -142 -330 -142q-104 0 -183 40 t-122 112.5t-43 165.5zM260 1206v5q0 133 47 201.5t146 68.5q41 0 74 -10.5t74 -30.5q39 -19 66.5 -27.5t58.5 -8.5q28 0 46 22t18 65h144q0 -139 -46.5 -206.5t-146.5 -67.5q-43 0 -81 11.5t-84 32.5q-38 17 -63.5 25t-47.5 8q-31 0 -46 -20.5t-15 -65.5v-2h-144zM351 309 q0 -65 37 -100t106 -35t127 35q40 24 59.5 50.5t27.5 71.5t8 126v51q-74 -27 -215 -53q-150 -30 -150 -146z" />
<glyph unicode="&#xe4;" horiz-adv-x="1126" d="M70 293q0 141 92 224t284 113t270 58v20q0 93 -45.5 127.5t-134.5 34.5q-70 0 -117 -32t-71 -101l-256 39q42 160 156 234.5t305 74.5q155 0 252.5 -39.5t144.5 -125.5t47 -225v-433q0 -76 11 -127t51 -135h-277q-21 46 -34 117q-141 -142 -330 -142q-104 0 -183 40 t-122 112.5t-43 165.5zM229 1225v241h242v-241h-242zM351 309q0 -65 37 -100t106 -35t127 35q40 24 59.5 50.5t27.5 71.5t8 126v51q-74 -27 -215 -53q-150 -30 -150 -146zM661 1225v241h242v-241h-242z" />
<glyph unicode="&#xe5;" horiz-adv-x="1126" d="M70 293q0 141 92 224t284 113t270 58v20q0 93 -45.5 127.5t-134.5 34.5q-70 0 -117 -32t-71 -101l-256 39q42 160 156 234.5t305 74.5q155 0 252.5 -39.5t144.5 -125.5t47 -225v-433q0 -76 11 -127t51 -135h-277q-21 46 -34 117q-141 -142 -330 -142q-104 0 -183 40 t-122 112.5t-43 165.5zM351 309q0 -65 37 -100t106 -35t127 35q40 24 59.5 50.5t27.5 71.5t8 126v51q-74 -27 -215 -53q-150 -30 -150 -146zM391 1356q0 82 57 139q58 57 140 57q81 0 138 -58q57 -57 57 -138q0 -79 -58 -137q-57 -58 -137 -58q-81 0 -139 58t-58 137z M498 1356q0 -37 26.5 -62.5t63.5 -25.5q36 0 62 26t26 62q0 37 -26 63.5t-63 26.5q-36 0 -62.5 -27t-26.5 -63z" />
<glyph unicode="&#xe6;" horiz-adv-x="1757" d="M70 293q0 141 92 224t284 113q183 29 265 58v20q0 93 -43.5 127.5t-131.5 34.5q-70 0 -117 -32t-71 -101l-256 39q42 160 156 234.5t305 74.5q221 0 328 -132q56 63 135.5 97.5t182.5 34.5q148 0 258.5 -65.5t170.5 -192t60 -305.5v-86h-706q10 -126 71 -186t159 -60 q64 0 112.5 41t68.5 107l280 -44q-54 -155 -175 -237t-296 -82q-252 0 -367 179q-176 -179 -417 -179q-104 0 -183 40t-122 112.5t-43 165.5zM350 309q0 -65 37.5 -100t106.5 -35q57 0 107 35.5t80 100t30 147.5v51q-80 -29 -210 -53q-151 -30 -151 -146zM982 641h427 q-7 115 -62 172t-148 57q-89 0 -148.5 -59t-68.5 -170z" />
<glyph unicode="&#xe7;" horiz-adv-x="1127" d="M70 531q0 165 59 290t174 194.5t278 69.5q182 0 302 -84t164 -258l-275 -50q-17 82 -65.5 125t-123.5 43q-109 0 -167 -87.5t-58 -243.5q0 -146 58 -235.5t172 -89.5q79 0 130.5 52.5t67.5 150.5l276 -48q-41 -182 -149 -276.5t-284 -106.5l-15 -62q106 -8 158 -46.5 t52 -112.5q0 -53 -38.5 -95t-117.5 -66.5t-195 -24.5q-29 0 -76.5 3.5t-81.5 7.5l14 135q58 -8 111 -8q72 0 109.5 13.5t37.5 44.5q0 27 -22 40.5t-55 13.5q-31 0 -61 -7l40 168q-136 18 -230.5 93.5t-141.5 193t-47 263.5z" />
<glyph unicode="&#xe8;" horiz-adv-x="1171" d="M70 524q0 153 61.5 281t179.5 204t281 76q155 0 269.5 -65.5t177.5 -192t63 -305.5v-86h-746q10 -118 69 -182t156 -64q89 0 146.5 40.5t79.5 107.5l280 -44q-56 -155 -182 -237t-309 -82q-172 0 -290 68t-177 191.5t-59 289.5zM266 1491h313l140 -295h-179zM357 641h465 q-10 111 -70 170t-159 59q-94 0 -159 -60.5t-77 -168.5z" />
<glyph unicode="&#xe9;" horiz-adv-x="1171" d="M70 524q0 153 61.5 281t179.5 204t281 76q155 0 269.5 -65.5t177.5 -192t63 -305.5v-86h-746q10 -118 69 -182t156 -64q89 0 146.5 40.5t79.5 107.5l280 -44q-56 -155 -182 -237t-309 -82q-172 0 -290 68t-177 191.5t-59 289.5zM357 641h465q-10 111 -70 170t-159 59 q-94 0 -159 -60.5t-77 -168.5zM414 1196l140 295h313l-274 -295h-179z" />
<glyph unicode="&#xea;" horiz-adv-x="1171" d="M70 524q0 153 61.5 281t179.5 204t281 76q155 0 269.5 -65.5t177.5 -192t63 -305.5v-86h-746q10 -118 69 -182t156 -64q89 0 146.5 40.5t79.5 107.5l280 -44q-56 -155 -182 -237t-309 -82q-172 0 -290 68t-177 191.5t-59 289.5zM227 1196l210 295h258l210 -295h-225 l-114 150l-114 -150h-225zM357 641h465q-10 111 -70 170t-159 59q-94 0 -159 -60.5t-77 -168.5z" />
<glyph unicode="&#xeb;" horiz-adv-x="1171" d="M70 524q0 153 61.5 281t179.5 204t281 76q155 0 269.5 -65.5t177.5 -192t63 -305.5v-86h-746q10 -118 69 -182t156 -64q89 0 146.5 40.5t79.5 107.5l280 -44q-56 -155 -182 -237t-309 -82q-172 0 -290 68t-177 191.5t-59 289.5zM229 1225v241h242v-241h-242zM357 641h465 q-10 111 -70 170t-159 59q-94 0 -159 -60.5t-77 -168.5zM661 1225v241h242v-241h-242z" />
<glyph unicode="&#xec;" horiz-adv-x="559" d="M-21 1491h313l140 -295h-179zM139 0v1061h281v-1061h-281z" />
<glyph unicode="&#xed;" horiz-adv-x="559" d="M127 1196l140 295h313l-274 -295h-179zM139 0v1061h281v-1061h-281z" />
<glyph unicode="&#xee;" horiz-adv-x="559" d="M-59 1196l210 295h258l210 -295h-225l-114 150l-114 -150h-225zM139 0v1061h281v-1061h-281z" />
<glyph unicode="&#xef;" horiz-adv-x="559" d="M-57 1225v241h242v-241h-242zM139 0v1061h281v-1061h-281zM375 1225v241h242v-241h-242z" />
<glyph unicode="&#xf0;" horiz-adv-x="1212" d="M70 524q0 151 62 270t175 185.5t261 66.5q25 0 61 -5t65 -15q-55 85 -129 171l-218 -100l-47 98l194 89q-128 127 -196 182h295q19 -16 52.5 -42.5t53.5 -43.5l183 86l45 -98l-144 -68q177 -180 268 -375.5t91 -387.5q0 -165 -64 -292t-185 -198.5t-287 -71.5t-287 70 t-185 194t-64 285zM358 518q0 -96 30 -166.5t85.5 -108.5t130.5 -38t131.5 37.5t87.5 108.5t31 168q0 312 -251 312q-70 0 -125.5 -37.5t-87.5 -108.5t-32 -167z" />
<glyph unicode="&#xf1;" horiz-adv-x="1219" d="M139 0v1061h262v-139q57 80 140 121.5t183 41.5q175 0 268 -93.5t93 -262.5v-729h-281v663q0 102 -38 154.5t-127 52.5q-97 0 -158.5 -69.5t-60.5 -212.5v-588h-281zM282 1206v5q0 133 47 201.5t146 68.5q41 0 74 -10.5t74 -30.5q39 -19 66.5 -27.5t58.5 -8.5q28 0 46 22 t18 65h144q0 -139 -46.5 -206.5t-146.5 -67.5q-43 0 -81 11.5t-84 32.5q-38 17 -63.5 25t-47.5 8q-31 0 -46 -20.5t-15 -65.5v-2h-144z" />
<glyph unicode="&#xf2;" horiz-adv-x="1212" d="M70 537q0 156 64 281t185 196t285 71q167 0 289 -71.5t185.5 -196t63.5 -282.5q0 -164 -64 -290.5t-185 -198t-287 -71.5t-287 71.5t-185 198.5t-64 292zM330 1491h313l140 -295h-179zM358 530q0 -99 30 -172.5t85.5 -113t130.5 -39.5t131.5 39t87.5 113t31 175 q0 97 -30 170t-86.5 113.5t-134.5 40.5q-70 0 -125.5 -39t-87.5 -113t-32 -174z" />
<glyph unicode="&#xf3;" horiz-adv-x="1212" d="M70 537q0 156 64 281t185 196t285 71q167 0 289 -71.5t185.5 -196t63.5 -282.5q0 -164 -64 -290.5t-185 -198t-287 -71.5t-287 71.5t-185 198.5t-64 292zM358 530q0 -99 30 -172.5t85.5 -113t130.5 -39.5t131.5 39t87.5 113t31 175q0 97 -30 170t-86.5 113.5t-134.5 40.5 q-70 0 -125.5 -39t-87.5 -113t-32 -174zM477 1196l140 295h313l-274 -295h-179z" />
<glyph unicode="&#xf4;" horiz-adv-x="1212" d="M70 537q0 156 64 281t185 196t285 71q167 0 289 -71.5t185.5 -196t63.5 -282.5q0 -164 -64 -290.5t-185 -198t-287 -71.5t-287 71.5t-185 198.5t-64 292zM291 1196l210 295h258l210 -295h-225l-114 150l-114 -150h-225zM358 530q0 -99 30 -172.5t85.5 -113t130.5 -39.5 t131.5 39t87.5 113t31 175q0 97 -30 170t-86.5 113.5t-134.5 40.5q-70 0 -125.5 -39t-87.5 -113t-32 -174z" />
<glyph unicode="&#xf5;" horiz-adv-x="1212" d="M70 537q0 156 64 281t185 196t285 71q167 0 289 -71.5t185.5 -196t63.5 -282.5q0 -164 -64 -290.5t-185 -198t-287 -71.5t-287 71.5t-185 198.5t-64 292zM303 1206v5q0 133 47 201.5t146 68.5q41 0 74 -10.5t74 -30.5q39 -19 66.5 -27.5t58.5 -8.5q28 0 46 22t18 65h144 q0 -139 -46.5 -206.5t-146.5 -67.5q-43 0 -81 11.5t-84 32.5q-38 17 -63.5 25t-47.5 8q-31 0 -46 -20.5t-15 -65.5v-2h-144zM358 530q0 -99 30 -172.5t85.5 -113t130.5 -39.5t131.5 39t87.5 113t31 175q0 97 -30 170t-86.5 113.5t-134.5 40.5q-70 0 -125.5 -39t-87.5 -113 t-32 -174z" />
<glyph unicode="&#xf6;" horiz-adv-x="1212" d="M70 537q0 156 64 281t185 196t285 71q167 0 289 -71.5t185.5 -196t63.5 -282.5q0 -164 -64 -290.5t-185 -198t-287 -71.5t-287 71.5t-185 198.5t-64 292zM293 1225v241h242v-241h-242zM358 530q0 -99 30 -172.5t85.5 -113t130.5 -39.5t131.5 39t87.5 113t31 175 q0 97 -30 170t-86.5 113.5t-134.5 40.5q-70 0 -125.5 -39t-87.5 -113t-32 -174zM725 1225v241h242v-241h-242z" />
<glyph unicode="&#xf7;" horiz-adv-x="1196" d="M86 592v262h1024v-262h-1024zM459 184v281h278v-281h-278zM459 981v281h278v-281h-278z" />
<glyph unicode="&#xf8;" horiz-adv-x="1212" d="M70 537q0 156 64 281t185 196t285 71q177 0 309 -84l102 120l111 -97l-103 -122q58 -72 88.5 -165.5t30.5 -201.5q0 -164 -64 -290.5t-185 -198t-287 -71.5q-176 0 -302 80l-109 -129l-111 97l110 129q-61 74 -92.5 172t-31.5 213zM358 530q0 -90 24 -156l367 433 q-62 49 -146 49q-70 0 -125.5 -39t-87.5 -113t-32 -174zM468 248q58 -43 136 -43q75 0 131.5 39t87.5 113t31 175q0 82 -21 146z" />
<glyph unicode="&#xf9;" horiz-adv-x="1219" d="M134 333v728h281v-663q0 -106 40 -157t126 -51q52 0 101.5 24.5t83 87.5t33.5 169v590h281v-1061h-262v139q-56 -79 -139.5 -121.5t-182.5 -42.5q-177 0 -269.5 94t-92.5 264zM305 1491h313l140 -295h-179z" />
<glyph unicode="&#xfa;" horiz-adv-x="1219" d="M134 333v728h281v-663q0 -106 40 -157t126 -51q52 0 101.5 24.5t83 87.5t33.5 169v590h281v-1061h-262v139q-56 -79 -139.5 -121.5t-182.5 -42.5q-177 0 -269.5 94t-92.5 264zM472 1196l140 295h313l-274 -295h-179z" />
<glyph unicode="&#xfb;" horiz-adv-x="1219" d="M134 333v728h281v-663q0 -106 40 -157t126 -51q52 0 101.5 24.5t83 87.5t33.5 169v590h281v-1061h-262v139q-56 -79 -139.5 -121.5t-182.5 -42.5q-177 0 -269.5 94t-92.5 264zM286 1196l210 295h258l210 -295h-225l-114 150l-114 -150h-225z" />
<glyph unicode="&#xfc;" horiz-adv-x="1219" d="M134 333v728h281v-663q0 -106 40 -157t126 -51q52 0 101.5 24.5t83 87.5t33.5 169v590h281v-1061h-262v139q-56 -79 -139.5 -121.5t-182.5 -42.5q-177 0 -269.5 94t-92.5 264zM277 1225v241h242v-241h-242zM709 1225v241h242v-241h-242z" />
<glyph unicode="&#xfd;" horiz-adv-x="1139" d="M18 1061h299l207 -604q19 -54 45 -150h4q31 110 42 143l204 611h291l-408 -1092q-94 -249 -181 -323q-89 -76 -250 -76q-73 0 -193 27l47 215q62 -19 99 -19q51 0 83.5 16t59.5 59.5t57 129.5zM414 1196l140 295h313l-274 -295h-179z" />
<glyph unicode="&#xfe;" horiz-adv-x="1253" d="M139 -406v1872h281v-529q64 74 142 111t175 37q127 0 228.5 -68.5t159.5 -192.5t58 -285q0 -177 -56.5 -304.5t-158.5 -193.5t-235 -66q-101 0 -172.5 34t-140.5 114v-529h-281zM418 533q0 -161 64 -247.5t176 -86.5q116 0 176.5 85.5t60.5 248.5q0 155 -60.5 241.5 t-166.5 86.5q-250 0 -250 -328z" />
<glyph unicode="&#xff;" horiz-adv-x="1139" d="M18 1061h299l207 -604q19 -54 45 -150h4q31 110 42 143l204 611h291l-408 -1092q-94 -249 -181 -323q-89 -76 -250 -76q-73 0 -193 27l47 215q62 -19 99 -19q51 0 83.5 16t59.5 59.5t57 129.5zM229 1225v241h242v-241h-242zM661 1225v241h242v-241h-242z" />
<glyph unicode="&#x152;" horiz-adv-x="2248" d="M88 725q0 231 82.5 404.5t231 267.5t341.5 94q278 0 421 -205v180h951v-248h-671v-335h616v-248h-616v-387h706v-248h-986v180q-58 -77 -120.5 -121.5t-139.5 -64t-180 -19.5q-184 0 -329 95.5t-226 266t-81 388.5zM394 733q0 -151 44 -265t129 -176.5t204 -62.5 q117 0 201.5 64t129 179t44.5 265q0 144 -44.5 257.5t-129.5 178t-203 64.5q-116 0 -201 -62.5t-129.5 -176.5t-44.5 -265z" />
<glyph unicode="&#x153;" horiz-adv-x="1870" d="M70 537q0 156 61.5 280.5t178 196t274.5 71.5q115 0 211 -45.5t163 -128.5q64 82 153 128t200 46q149 0 259 -65.5t170.5 -192t60.5 -305.5v-86h-706q10 -126 71 -186t159 -60q64 0 112.5 41t68.5 107l280 -44q-54 -155 -175 -237t-297 -82q-119 0 -211.5 43t-155.5 122 q-68 -79 -160.5 -122t-200.5 -43q-160 0 -276.5 71.5t-178 198.5t-61.5 292zM358 530q0 -100 27.5 -173t78.5 -112.5t120 -39.5t121 39t80.5 113t28.5 175q0 97 -27.5 170t-80 113.5t-123.5 40.5q-64 0 -115 -39t-80.5 -113t-29.5 -174zM1095 641h427q-7 115 -62 172 t-148 57q-89 0 -148.5 -59t-68.5 -170z" />
<glyph unicode="&#x178;" horiz-adv-x="1340" d="M-5 1466h346l224 -395q65 -114 108 -209h4q40 86 108 208l220 396h340l-528 -852v-614h-295v616zM333 1596v251h252v-251h-252zM763 1596v251h252v-251h-252z" />
<glyph unicode="&#x2c6;" d="M2 1196l210 295h258l210 -295h-225l-114 150l-114 -150h-225z" />
<glyph unicode="&#x2dc;" d="M4 1206v5q0 133 47 201.5t146 68.5q41 0 74 -10.5t74 -30.5q39 -19 66.5 -27.5t58.5 -8.5q28 0 46 22t18 65h144q0 -139 -46.5 -206.5t-146.5 -67.5q-43 0 -81 11.5t-84 32.5q-38 17 -63.5 25t-47.5 8q-31 0 -46 -20.5t-15 -65.5v-2h-144z" />
<glyph unicode="&#x2000;" horiz-adv-x="933" />
<glyph unicode="&#x2001;" horiz-adv-x="1867" />
<glyph unicode="&#x2002;" horiz-adv-x="933" />
<glyph unicode="&#x2003;" horiz-adv-x="1867" />
<glyph unicode="&#x2004;" horiz-adv-x="622" />
<glyph unicode="&#x2005;" horiz-adv-x="466" />
<glyph unicode="&#x2006;" horiz-adv-x="311" />
<glyph unicode="&#x2007;" horiz-adv-x="311" />
<glyph unicode="&#x2008;" horiz-adv-x="233" />
<glyph unicode="&#x2009;" horiz-adv-x="373" />
<glyph unicode="&#x200a;" horiz-adv-x="103" />
<glyph unicode="&#x2010;" horiz-adv-x="741" d="M95 391v281h551v-281h-551z" />
<glyph unicode="&#x2011;" horiz-adv-x="741" d="M95 391v281h551v-281h-551z" />
<glyph unicode="&#x2012;" horiz-adv-x="741" d="M95 391v281h551v-281h-551z" />
<glyph unicode="&#x2013;" horiz-adv-x="1024" d="M-10 426v209h1044v-209h-1044z" />
<glyph unicode="&#x2014;" horiz-adv-x="2048" d="M-10 426v209h2068v-209h-2068z" />
<glyph unicode="&#x2018;" horiz-adv-x="568" d="M140 865v219q0 112 21.5 184t76 123t155.5 90l57 -122q-85 -28 -121.5 -76.5t-39.5 -129.5h139v-288h-288z" />
<glyph unicode="&#x2019;" horiz-adv-x="568" d="M118 972q85 27 121.5 75t39.5 131h-139v288h288v-219q0 -112 -21.5 -184t-76 -123t-155.5 -90z" />
<glyph unicode="&#x201a;" horiz-adv-x="568" d="M118 -206q85 27 121.5 76t39.5 130h-139v288h288v-219q0 -112 -21.5 -184t-76 -123t-155.5 -90z" />
<glyph unicode="&#x201c;" horiz-adv-x="1018" d="M140 865v219q0 112 21.5 184t76 123t155.5 90l57 -122q-85 -28 -121.5 -76.5t-39.5 -129.5h139v-288h-288zM590 865v219q0 112 21.5 184t76 123t155.5 90l57 -122q-85 -28 -121.5 -76.5t-39.5 -129.5h139v-288h-288z" />
<glyph unicode="&#x201d;" horiz-adv-x="1018" d="M118 972q85 27 121.5 75.5t39.5 130.5h-139v288h288v-219q0 -112 -21.5 -184t-76 -123t-155.5 -90zM568 972q85 27 121.5 75.5t39.5 130.5h-139v288h288v-219q0 -112 -21.5 -184t-76 -123t-155.5 -90z" />
<glyph unicode="&#x201e;" horiz-adv-x="1018" d="M118 -206q85 27 121.5 76t39.5 130h-139v288h288v-219q0 -112 -21.5 -184t-76 -123t-155.5 -90zM568 -206q85 27 121.5 76t39.5 130h-139v288h288v-219q0 -112 -21.5 -184t-76 -123t-155.5 -90z" />
<glyph unicode="&#x2022;" horiz-adv-x="717" d="M63 723q0 80 40.5 148.5t108.5 108.5t145 40q80 0 148 -40.5t108.5 -108.5t40.5 -148q0 -79 -40.5 -147t-109 -108t-147.5 -40q-78 0 -145.5 40.5t-108 108.5t-40.5 146z" />
<glyph unicode="&#x2026;" horiz-adv-x="2048" d="M197 0v288h288v-288h-288zM880 0v288h288v-288h-288zM1563 0v288h288v-288h-288z" />
<glyph unicode="&#x202f;" horiz-adv-x="373" />
<glyph unicode="&#x2039;" d="M86 532l315 451h221l-260 -451l260 -462h-221z" />
<glyph unicode="&#x203a;" d="M60 70l260 450l-260 463h221l315 -463l-315 -450h-221z" />
<glyph unicode="&#x205f;" horiz-adv-x="466" />
<glyph unicode="&#x20ac;" horiz-adv-x="1163" d="M20 505l33 155h98q-2 26 -2 68q0 45 2 67h-131l33 155h119q23 147 104 266t211 188t296 69q108 0 185.5 -17.5t146.5 -51.5l-56 -244q-51 31 -115.5 50t-131.5 19q-142 0 -227.5 -72t-117.5 -207h549l-33 -155h-537q-2 -26 -2 -61q0 -42 2 -72v-2h510l-32 -155h-455 q29 -134 118 -210t219 -76q153 0 304 85v-255q-62 -33 -155.5 -53.5t-198.5 -20.5q-237 0 -383 130.5t-203 399.5h-150z" />
<glyph unicode="&#x2122;" horiz-adv-x="1765" d="M40 1293v173h658v-173h-231v-646h-196v646h-231zM766 647v819h290l147 -475h5l147 475h290v-819h-188v593h-4l-174 -593h-149l-172 593h-4v-593h-188z" />
<glyph unicode="&#x25fc;" horiz-adv-x="1060" d="M0 0v1060h1060v-1060h-1060z" />
</font>
</defs>
</svg>
