<svg id="Logo" xmlns="http://www.w3.org/2000/svg" width="146.836" height="50.34" viewBox="0 0 146.836 50.34">
  <g id="Group_4" data-name="Group 4" transform="translate(57.826 9.878)">
    <g id="Group_2" data-name="Group 2" transform="translate(0)">
      <path id="Path_1" data-name="Path 1" d="M388.126,273.414v7.171H385.3v-6.443c0-1.529-.588-2.351-2-2.351a2.645,2.645,0,0,0-2.186,1.434v7.359H378.3v-6.443c0-1.529-.588-2.351-2-2.351a2.646,2.646,0,0,0-2.187,1.434v7.359H371.29V269.44h1.3a1.335,1.335,0,0,1,1.335,1.335v.287a3.867,3.867,0,0,1,3.292-1.9,3.567,3.567,0,0,1,3.457,1.952,3.9,3.9,0,0,1,3.55-1.952C386.48,269.158,388.126,270.733,388.126,273.414Z" transform="translate(-371.29 -262.809)" fill="#233447"/>
      <path id="Path_2" data-name="Path 2" d="M441.053,273.32v7.266h-2.61v-1.411a4.511,4.511,0,0,1-3.668,1.693,3.769,3.769,0,0,1-4.021-3.739c0-2.14,1.952-3.692,4.374-3.692a5.417,5.417,0,0,1,3.1.8V273.6c0-1.458-1.411-1.928-2.4-1.928a9.045,9.045,0,0,0-3.339.823l-.917-2.329a11.293,11.293,0,0,1,4.4-1.01C439.172,269.158,441.053,270.78,441.053,273.32Zm-2.822,3.9v-1.151a5.635,5.635,0,0,0-2.539-.564c-.87,0-2.069.376-2.069,1.575,0,1.176,1.152,1.435,2.022,1.435A3.3,3.3,0,0,0,438.232,277.223Z" transform="translate(-412.082 -262.809)" fill="#233447"/>
      <path id="Path_3" data-name="Path 3" d="M474.082,280.868a5.871,5.871,0,0,1,0-11.71,3.993,3.993,0,0,1,3.362,1.74V269.44h1.275a1.335,1.335,0,0,1,1.335,1.335v9.905c0,3.88-2.869,5.6-6,5.6a8.021,8.021,0,0,1-5.29-2.116l1.6-2.163a5.638,5.638,0,0,0,3.692,1.647c2.187,0,3.175-1.2,3.175-2.869v-1.34A3.982,3.982,0,0,1,474.082,280.868Zm3.151-7.525a3.089,3.089,0,0,0-2.657-1.551,3.226,3.226,0,0,0,0,6.443,3.134,3.134,0,0,0,2.657-1.552Z" transform="translate(-438.078 -262.809)" fill="#233447"/>
      <path id="Path_4" data-name="Path 4" d="M521.282,274.966c0,.211,0,.634-.023,1.057h-8.324a3.181,3.181,0,0,0,3.127,2.257,4.487,4.487,0,0,0,3.057-1.128l1.411,2.116a7.139,7.139,0,0,1-4.468,1.6,5.859,5.859,0,0,1-6-5.855,5.612,5.612,0,1,1,11.216-.047Zm-2.821-.988a2.591,2.591,0,0,0-2.8-2.257,2.564,2.564,0,0,0-2.727,2.257Z" transform="translate(-466.489 -262.809)" fill="#233447"/>
      <path id="Path_5" data-name="Path 5" d="M551.929,248.939h1.486a1.335,1.335,0,0,1,1.335,1.335v16.441h-2.822Z" transform="translate(-495.207 -248.939)" fill="#233447"/>
      <path id="Path_6" data-name="Path 6" d="M569.179,248.939h1.487A1.335,1.335,0,0,1,572,250.274v16.441h-2.822Z" transform="translate(-507.04 -248.939)" fill="#233447"/>
      <path id="Path_7" data-name="Path 7" d="M594.034,273.32v7.266h-2.61v-1.411a4.511,4.511,0,0,1-3.668,1.693,3.769,3.769,0,0,1-4.021-3.739c0-2.14,1.952-3.692,4.373-3.692a5.418,5.418,0,0,1,3.1.8V273.6c0-1.458-1.411-1.928-2.4-1.928a9.045,9.045,0,0,0-3.339.823l-.917-2.329a11.293,11.293,0,0,1,4.4-1.01C592.153,269.158,594.034,270.78,594.034,273.32Zm-2.822,3.9v-1.151a5.636,5.636,0,0,0-2.539-.564c-.87,0-2.069.376-2.069,1.575,0,1.176,1.152,1.435,2.022,1.435A3.3,3.3,0,0,0,591.212,277.223Z" transform="translate(-517.026 -262.809)" fill="#233447"/>
      <path id="Path_8" data-name="Path 8" d="M632.768,273.366v7.219h-2.822v-6.514a2.057,2.057,0,0,0-2.21-2.28,2.75,2.75,0,0,0-2.21,1.434v7.359H622.7V269.44H624a1.335,1.335,0,0,1,1.335,1.335v.287a3.852,3.852,0,0,1,3.339-1.9A3.993,3.993,0,0,1,632.768,273.366Z" transform="translate(-543.758 -262.809)" fill="#233447"/>
    </g>
    <g id="Group_3" data-name="Group 3" transform="translate(0 25.912)">
      <path id="Path_9" data-name="Path 9" d="M372.355,331.731v1.9a4.522,4.522,0,0,1,3.854-2.176,5.45,5.45,0,0,1,0,10.881,4.537,4.537,0,0,1-3.74-2v5.664H371.29V331.731Zm.113,7.05a4.325,4.325,0,0,0,3.718,2.4,4.3,4.3,0,0,0,0-8.569,4.325,4.325,0,0,0-3.718,2.4Z" transform="translate(-371.29 -331.459)" fill="#233447"/>
      <path id="Path_10" data-name="Path 10" d="M417.546,336.9a5.262,5.262,0,1,1-5.259-5.44A5.248,5.248,0,0,1,417.546,336.9Zm-1.224,0a4.042,4.042,0,1,0-4.035,4.284A3.968,3.968,0,0,0,416.322,336.9Z" transform="translate(-395.806 -331.459)" fill="#233447"/>
      <path id="Path_11" data-name="Path 11" d="M442.954,332.326l3.355,8.092,3.287-8.092h.68l3.264,8.092,3.332-8.092H458.1l-4.624,10.79-3.581-8.637-3.6,8.637-4.6-10.79Z" transform="translate(-419.58 -332.054)" fill="#233447"/>
      <path id="Path_12" data-name="Path 12" d="M505.365,336.9a3.7,3.7,0,0,1-.023.476h-8.909a4.08,4.08,0,0,0,4.125,3.808,4.593,4.593,0,0,0,3.536-1.768l.794.815a5.827,5.827,0,0,1-4.33,2.109,5.313,5.313,0,0,1-5.3-5.44,5.069,5.069,0,1,1,10.11,0Zm-1.224-.612a3.834,3.834,0,0,0-7.662,0Z" transform="translate(-456.329 -331.459)" fill="#233447"/>
      <path id="Path_13" data-name="Path 13" d="M539.5,331.731l-.5,1.133a2.978,2.978,0,0,0-1.383-.249c-1.791,0-2.629,2-2.629,2v7.457h-1.179V331.731h1.065v1.678a3.477,3.477,0,0,1,3.015-1.95A4.443,4.443,0,0,1,539.5,331.731Z" transform="translate(-482.777 -331.459)" fill="#233447"/>
    </g>
  </g>
  <g id="Group_1" data-name="Group 1">
    <path id="Path_14" data-name="Path 14" d="M249.225,222.934a11.839,11.839,0,0,0-6.559-5.341,2.126,2.126,0,0,0-2.5,3.109l6.464,11.2a2.139,2.139,0,0,0,3.945-.614A11.84,11.84,0,0,0,249.225,222.934Z" transform="translate(-223.31 -217.481)" fill="#ef5f2b"/>
    <path id="Path_15" data-name="Path 15" d="M275.744,217.481a2.162,2.162,0,0,0-.68.112,11.849,11.849,0,0,0-4.918,3.149,12.961,12.961,0,0,1,2.8,7.957l4.617-8A2.149,2.149,0,0,0,275.744,217.481Z" transform="translate(-244.08 -217.481)" fill="#ef5f2b"/>
    <path id="Path_16" data-name="Path 16" d="M261.437,338.5A11.839,11.839,0,0,0,268,343.845a2.126,2.126,0,0,0,2.5-3.109l-6.464-11.2a2.139,2.139,0,0,0-3.945.614A11.841,11.841,0,0,0,261.437,338.5Z" transform="translate(-237.012 -293.617)" fill="#ef5f2b"/>
    <path id="Path_17" data-name="Path 17" d="M241.986,353.289a2.16,2.16,0,0,0,.68-.112,11.844,11.844,0,0,0,4.918-3.149,12.961,12.961,0,0,1-2.8-7.957l-4.617,8A2.15,2.15,0,0,0,241.986,353.289Z" transform="translate(-223.31 -302.949)" fill="#ef5f2b"/>
    <path id="Path_18" data-name="Path 18" d="M295.34,233.994a11.841,11.841,0,0,0-.862-8.414,2.126,2.126,0,0,0-3.969.428l-3.346,12.487a2.139,2.139,0,0,0,3.223,2.355A11.841,11.841,0,0,0,295.34,233.994Z" transform="translate(-255.701 -222.239)" fill="#ef5f2b"/>
    <path id="Path_19" data-name="Path 19" d="M316.952,251.959a2.169,2.169,0,0,0-.56-.4,11.853,11.853,0,0,0-5.7-1.251,12.96,12.96,0,0,1-3.643,7.61l8.919-2.39A2.149,2.149,0,0,0,316.952,251.959Z" transform="translate(-269.392 -239.995)" fill="#ef5f2b"/>
    <path id="Path_20" data-name="Path 20" d="M220.323,324.611a11.837,11.837,0,0,0,.862,8.414,2.126,2.126,0,0,0,3.969-.428L228.5,320.11a2.139,2.139,0,0,0-3.223-2.355A11.839,11.839,0,0,0,220.323,324.611Z" transform="translate(-209.622 -286.025)" fill="#ef5f2b"/>
    <path id="Path_21" data-name="Path 21" d="M194.673,326.68a2.169,2.169,0,0,0,.56.4,11.853,11.853,0,0,0,5.7,1.251,12.959,12.959,0,0,1,3.643-7.61l-8.919,2.39A2.149,2.149,0,0,0,194.673,326.68Z" transform="translate(-191.893 -288.304)" fill="#ef5f2b"/>
    <path id="Path_22" data-name="Path 22" d="M308.158,279.571a11.839,11.839,0,0,0,5.341-6.559,2.126,2.126,0,0,0-3.109-2.5l-11.2,6.464a2.139,2.139,0,0,0,.614,3.945A11.839,11.839,0,0,0,308.158,279.571Z" transform="translate(-263.271 -253.656)" fill="#ef5f2b"/>
    <path id="Path_23" data-name="Path 23" d="M322.943,306.09a2.161,2.161,0,0,0-.112-.68,11.848,11.848,0,0,0-3.149-4.918,12.965,12.965,0,0,1-7.957,2.8l8,4.617A2.149,2.149,0,0,0,322.943,306.09Z" transform="translate(-272.603 -274.426)" fill="#ef5f2b"/>
    <path id="Path_24" data-name="Path 24" d="M192.588,291.783a11.839,11.839,0,0,0-5.341,6.559,2.126,2.126,0,0,0,3.109,2.5l11.2-6.464a2.139,2.139,0,0,0-.614-3.945A11.84,11.84,0,0,0,192.588,291.783Z" transform="translate(-187.135 -267.358)" fill="#ef5f2b"/>
    <path id="Path_25" data-name="Path 25" d="M187.135,272.332a2.17,2.17,0,0,0,.112.68,11.848,11.848,0,0,0,3.149,4.918,12.961,12.961,0,0,1,7.957-2.8l-8-4.617A2.15,2.15,0,0,0,187.135,272.332Z" transform="translate(-187.135 -253.656)" fill="#ef5f2b"/>
    <path id="Path_26" data-name="Path 26" d="M294.265,325.686a11.839,11.839,0,0,0,8.414-.861,2.126,2.126,0,0,0-.428-3.969l-12.487-3.346a2.139,2.139,0,0,0-2.355,3.223A11.839,11.839,0,0,0,294.265,325.686Z" transform="translate(-255.679 -286.047)" fill="#ef5f2b"/>
    <path id="Path_27" data-name="Path 27" d="M296.334,347.3a2.17,2.17,0,0,0,.4-.56,11.854,11.854,0,0,0,1.251-5.7,12.952,12.952,0,0,1-7.61-3.643l2.39,8.919A2.15,2.15,0,0,0,296.334,347.3Z" transform="translate(-257.958 -299.738)" fill="#ef5f2b"/>
    <path id="Path_28" data-name="Path 28" d="M203.648,250.669a11.839,11.839,0,0,0-8.414.861,2.126,2.126,0,0,0,.428,3.969l12.487,3.346a2.139,2.139,0,0,0,2.355-3.223A11.84,11.84,0,0,0,203.648,250.669Z" transform="translate(-191.893 -239.968)" fill="#ef5f2b"/>
    <path id="Path_29" data-name="Path 29" d="M221.613,225.019a2.16,2.16,0,0,0-.4.56,11.85,11.85,0,0,0-1.251,5.7,12.954,12.954,0,0,1,7.61,3.643l-2.39-8.919A2.149,2.149,0,0,0,221.613,225.019Z" transform="translate(-209.649 -222.239)" fill="#ef5f2b"/>
  </g>
</svg>
